<svg xmlns="http://www.w3.org/2000/svg" viewBox="0 0 107.81 283.89"><defs><style>.cls-1{fill:#aa7764;}.cls-1,.cls-10,.cls-2,.cls-3,.cls-4,.cls-6,.cls-7,.cls-8,.cls-9{fill-rule:evenodd;}.cls-2{fill:#869ab5;}.cls-3{fill:#fcdabe;}.cls-4{fill:#425156;}.cls-5,.cls-8{fill:#e82c4f;}.cls-12,.cls-6{fill:#cc1a3b;}.cls-7{fill:#e0ba9b;}.cls-9{fill:#bf9470;}.cls-10,.cls-11{fill:#a1b2c9;}</style></defs><title>person1</title><g id="Layer_2" data-name="Layer 2"><g id="Objects"><path class="cls-1" d="M54,0C-10.65,0,4.93,85.75,54,85.75S118.73,0,54,0Z"/><path class="cls-2" d="M33.39,261.49c-4.51,6.73-10.53,10.59-12,15.44-2.43,7.86,5.8,7.48,10.89,6.25,5.32-1.28,7.87-4.45,10.79-5.3,7.18-2.07,7.36-6.31,4.46-16.39S37,255.2,33.39,261.49Z"/><path class="cls-2" d="M73.14,261.49c4.51,6.73,10.52,10.59,12,15.44,2.62,8.43-7.24,7.5-12.25,5.87-4.42-1.45-6.76-4.15-9.43-4.92-7.17-2.07-7.35-6.31-4.45-16.39S69.5,255.2,73.14,261.49Z"/><path class="cls-3" d="M83.64,172.49h0a2.3,2.3,0,0,0-3.23.33l-3.53,4.31a2.3,2.3,0,0,0,.33,3.23h0a2.3,2.3,0,0,0,3.23-.32L84,175.72A2.3,2.3,0,0,0,83.64,172.49Z"/><path class="cls-3" d="M23.9,172.27h0a2.29,2.29,0,0,1,3.24.14l3.78,4.1a2.3,2.3,0,0,1-.14,3.24h0a2.29,2.29,0,0,1-3.24-.13l-3.78-4.11A2.3,2.3,0,0,1,23.9,172.27Z"/><path class="cls-4" d="M28.65,174.67H79.42v92.44H58.33V200c0-5.76-8.59-5.8-8.59,0v67.13H28.65Z"/><rect class="cls-5" x="28.65" y="101.57" width="50.77" height="80.04"/><path class="cls-6" d="M39.93,101.57H68.15v1.77A14.15,14.15,0,0,1,54,117.45h0a14.15,14.15,0,0,1-14.11-14.11Z"/><path class="cls-3" d="M54,63.84h0A11.5,11.5,0,0,1,65.5,75.3v26.27A11.5,11.5,0,0,1,54,113h0a11.5,11.5,0,0,1-11.47-11.46V75.3A11.5,11.5,0,0,1,54,63.84Z"/><path class="cls-7" d="M65.5,93h0c0,9.85-22.93,9.85-22.93,0h0C42.57,83.17,65.5,83.17,65.5,93Z"/><path class="cls-3" d="M54,2.73c-64.6,0-49,93.76,0,93.76S118.64,2.73,54,2.73Z"/><path class="cls-8" d="M70,115.27l20.14,35.48A9.49,9.49,0,0,0,103,154.3h0a9.49,9.49,0,0,0,3.55-12.88L86.46,106C80.61,95.64,64.48,105.5,70,115.27Z"/><path class="cls-3" d="M80.12,175.18l.89-3,17.77,5.13-.88,3C94,193.38,75.61,190.29,80.12,175.18Z"/><path class="cls-8" d="M81,172.22l8.06-28.4a9.42,9.42,0,0,1,11.75-6.35h0a9.47,9.47,0,0,1,6.35,11.75l-8.39,28.13Z"/><path class="cls-8" d="M37.79,115.27,17.66,150.75A9.49,9.49,0,0,1,4.78,154.3h0a9.48,9.48,0,0,1-3.56-12.88L21.36,106C27.2,95.64,43.33,105.5,37.79,115.27Z"/><path class="cls-3" d="M27.69,175.18l-.88-3L9,177.35l.88,3C13.8,193.38,32.2,190.29,27.69,175.18Z"/><path class="cls-8" d="M26.81,172.22l-8.07-28.4A9.42,9.42,0,0,0,7,137.47H7A9.47,9.47,0,0,0,.64,149.22L9,177.35Z"/><path class="cls-3" d="M9.16,44c3.26-.83,7.22,3.66,8.85,10s.3,12.21-3,13-7.23-3.66-8.85-10S5.89,44.85,9.16,44Z"/><path class="cls-3" d="M99,44c-3.26-.83-7.22,3.66-8.85,10s-.3,12.21,3,13,7.23-3.66,8.85-10S102.21,44.85,99,44Z"/><path class="cls-4" d="M67.44,58.65c1.71,0,3.11-2.56,3.11-5.7s-1.4-5.7-3.11-5.7-3.11,2.56-3.11,5.7S65.73,58.65,67.44,58.65Z"/><path class="cls-4" d="M40.64,58.65c1.71,0,3.11-2.56,3.11-5.7s-1.4-5.7-3.11-5.7-3.11,2.56-3.11,5.7S38.92,58.65,40.64,58.65Z"/><path class="cls-1" d="M79.66,9.56c-5.64,17.53-51.83,39-68.77,30.9C9.59-1,64.27-7.77,79.66,9.56Z"/><path class="cls-1" d="M61.32,4.42C64.68,20.78,86.19,41,96.42,42.16,98.2,18.2,76.6-.37,61.32,4.42Z"/><path class="cls-1" d="M20,37.67c-2.8,5.89-2.9,10.6-2.19,17.46s-.73,6-3.19.68S10.43,45,11,38.94,25,25.25,20,37.67Z"/><path class="cls-1" d="M87.84,37.67c2.58,6.8,2.67,11.74,2,18.6s1,4.91,3.42-.46a37.82,37.82,0,0,0,3.67-16.87C96.79,32.64,82.88,25.25,87.84,37.67Z"/><path class="cls-9" d="M70.22,72C64,84.78,44.06,84.78,37.85,72,47.18,77.19,60.89,77.19,70.22,72Z"/><path class="cls-7" d="M60.33,65.1c-2.42,6.16-10.17,6.05-12.59,0A9,9,0,0,0,60.33,65.1Z"/><path class="cls-1" d="M44.56,41.43c-3-2.12-8-.65-10.5,2.14-1.26,1.4-.18,1.51.68.72A8,8,0,0,1,44,43C45.51,43.75,46.22,42.61,44.56,41.43Z"/><path class="cls-1" d="M60.76,41.43c3-2.12,8-.65,10.5,2.14,1.26,1.4.18,1.51-.68.72A8,8,0,0,0,61.37,43C59.81,43.75,59.1,42.61,60.76,41.43Z"/><path class="cls-10" d="M22,275.37a9.05,9.05,0,0,0-.65,1.56c-2.43,7.86,5.8,7.48,10.89,6.25,5.32-1.28,7.87-4.45,10.79-5.3,3.85-1.11,5.69-2.84,6.11-5.77-4.08,3.18-10.26,5.78-16.8,7.93A14.55,14.55,0,0,0,22,275.37Z"/><path class="cls-11" d="M30.75,266.91a6.23,6.23,0,0,1,1,.41h.09a10,10,0,0,1,5.48.85.6.6,0,0,1-.58,1,7.57,7.57,0,0,0-3.45-.75A11.75,11.75,0,0,1,35.14,271a.61.61,0,0,1,.14.75.6.6,0,0,1-.81.24,8.73,8.73,0,0,0-3.18-.92,13.52,13.52,0,0,1,1.76,2.49.61.61,0,0,1-.22.82.6.6,0,0,1-.82-.22,13.77,13.77,0,0,0-1.26-1.89V269.8a12.51,12.51,0,0,1,2.45.38A7.76,7.76,0,0,0,32.09,269a4.61,4.61,0,0,0-.62-.44l-.72.09Zm-5.92,5.15a.59.59,0,0,1-.84-.13.58.58,0,0,1,.13-.83,6.27,6.27,0,0,1,2.08-.88h0a.62.62,0,0,1-.46-.16.46.46,0,0,1-.16-.15.58.58,0,0,1,.13-.83,9.63,9.63,0,0,1,3-1.23l-.29,0a.6.6,0,0,1-.11-1.19,6.57,6.57,0,0,1,2.49.23v1.73a16.8,16.8,0,0,0-2.45.55,6.06,6.06,0,0,1,1.4.58q.53,0,1.05,0v2.44a7.4,7.4,0,0,0-.83-.85,5.7,5.7,0,0,0-.55-.42A9.4,9.4,0,0,0,24.83,272.06Z"/><path class="cls-10" d="M84.51,275.37a11,11,0,0,1,.65,1.56c2.43,7.86-5.8,7.48-10.89,6.25-5.33-1.28-7.87-4.45-10.8-5.3-3.84-1.11-5.68-2.84-6.11-5.77,4.08,3.18,10.26,5.78,16.81,7.93A14.55,14.55,0,0,1,84.51,275.37Z"/><path class="cls-11" d="M81.69,272.06a.6.6,0,0,0,.84-.13.6.6,0,0,0-.13-.83,6.27,6.27,0,0,0-2.08-.88h0a.63.63,0,0,0,.46-.16.56.56,0,0,0,.16-.15.58.58,0,0,0-.13-.83,9.63,9.63,0,0,0-3-1.23l.29,0a.6.6,0,0,0,.65-.54.61.61,0,0,0-.55-.65,6.52,6.52,0,0,0-2.48.23v1.73a16.8,16.8,0,0,1,2.45.55,6.32,6.32,0,0,0-1.41.58l-1,0v2.44a6.65,6.65,0,0,1,.83-.85,4.69,4.69,0,0,1,.55-.42A9.43,9.43,0,0,1,81.69,272.06Zm-5.92-5.15a6.23,6.23,0,0,0-1,.41h-.09a10,10,0,0,0-5.48.85A.6.6,0,0,0,69,269a.61.61,0,0,0,.82.24,7.52,7.52,0,0,1,3.44-.75A12,12,0,0,0,71.38,271a.6.6,0,0,0,.67,1,8.73,8.73,0,0,1,3.18-.92,13.06,13.06,0,0,0-1.76,2.49.59.59,0,0,0,.22.82.61.61,0,0,0,.82-.22,13.77,13.77,0,0,1,1.26-1.89V269.8a12.28,12.28,0,0,0-2.45.38A7.29,7.29,0,0,1,74.43,269a4.51,4.51,0,0,1,.61-.44c.25,0,.49.05.73.09Z"/><polygon class="cls-6" points="9.03 177.35 7.84 173.36 25.67 168.21 26.81 172.22 9.03 177.35"/><polygon class="cls-6" points="98.78 177.35 99.97 173.36 82.14 168.21 81.01 172.22 98.78 177.35"/><rect class="cls-12" x="28.65" y="131.37" width="50.77" height="15.72"/></g></g></svg>