<svg xmlns="http://www.w3.org/2000/svg" viewBox="0 0 97.11 285.33"><defs><style>.cls-1{fill:#aa7764;}.cls-1,.cls-10,.cls-11,.cls-13,.cls-2,.cls-3,.cls-4,.cls-6,.cls-7,.cls-8,.cls-9{fill-rule:evenodd;}.cls-2{fill:#e8972d;}.cls-3{fill:#869ab5;}.cls-4{fill:#fcdabe;}.cls-5,.cls-9{fill:#e82c4f;}.cls-6{fill:#e0ba9b;}.cls-7{fill:#425156;}.cls-8{fill:#bf9470;}.cls-10{fill:#fa7d94;}.cls-11,.cls-12{fill:#f5b158;}.cls-13{fill:#bd1837;}</style></defs><title>person9</title><g id="Layer_2" data-name="Layer 2"><g id="Objects"><path class="cls-1" d="M48.54,1.15c-64.69,0-49.11,85.75,0,85.75S113.23,1.15,48.54,1.15Z"/><path class="cls-2" d="M27.89,262.64c-4.52,6.73-10.53,10.59-12,15.44-2.43,7.84,6.31,7.84,11.44,6.37,4.82-1.38,7.46-4.61,10.24-5.41,7.17-2.08,7.36-6.32,4.46-16.4S31.52,256.36,27.89,262.64Z"/><path class="cls-2" d="M68.87,262.64c4.51,6.73,10.52,10.59,12,15.44,2.48,8-6.73,7.74-11.73,6.26-4.73-1.4-7.19-4.51-9.95-5.3-7.17-2.08-7.35-6.32-4.45-16.4S65.23,256.36,68.87,262.64Z"/><path class="cls-3" d="M23.15,175.82H73.92v92.44H52.83V201.13c0-5.76-8.59-5.8-8.59,0v67.13H23.15Z"/><path class="cls-4" d="M35,114.46,22.69,153.34a9.49,9.49,0,0,1-11.87,6.14h0a9.47,9.47,0,0,1-6.14-11.86L17,108.74C20.62,97.45,38.44,103.75,35,114.46Z"/><path class="cls-4" d="M16.92,183.08h0a2.3,2.3,0,0,1,2,2.56l-.68,5.53a2.3,2.3,0,0,1-2.56,2h0a2.29,2.29,0,0,1-2-2.55l.68-5.54A2.3,2.3,0,0,1,16.92,183.08Z"/><path class="cls-4" d="M18.92,185.64l.33-3.07L.87,180.41l-.33,3.07C-.94,197,17.22,201.32,18.92,185.64Z"/><path class="cls-4" d="M19.25,182.57l3.56-29.31a9.42,9.42,0,0,0-8.38-10.4h0A9.46,9.46,0,0,0,4,151.23L.87,180.41Z"/><path class="cls-4" d="M62.24,114.46l12.35,38.88a9.47,9.47,0,0,0,11.86,6.14h0a9.48,9.48,0,0,0,6.15-11.86L80.25,108.74C76.66,97.45,58.84,103.75,62.24,114.46Z"/><path class="cls-4" d="M80.35,183.08h0a2.29,2.29,0,0,0-2,2.56l.68,5.53a2.3,2.3,0,0,0,2.56,2h0a2.3,2.3,0,0,0,2-2.55l-.69-5.54A2.29,2.29,0,0,0,80.35,183.08Z"/><path class="cls-4" d="M78.36,185.64,78,182.57l18.37-2.16.33,3.07C98.21,197,80.05,201.32,78.36,185.64Z"/><path class="cls-4" d="M78,182.57l-3.57-29.31a9.43,9.43,0,0,1,8.38-10.4h0a9.47,9.47,0,0,1,10.41,8.38l3.15,29.17Z"/><rect class="cls-5" x="23.15" y="102.72" width="50.77" height="80.04"/><path class="cls-4" d="M48.54,65h0A11.5,11.5,0,0,1,60,76.45v26.27a11.49,11.49,0,0,1-11.46,11.46h0a11.49,11.49,0,0,1-11.47-11.46V76.45A11.5,11.5,0,0,1,48.54,65Z"/><path class="cls-6" d="M60,94.17h0c0,9.85-22.93,9.85-22.93,0h0C37.07,84.33,60,84.33,60,94.17Z"/><path class="cls-4" d="M48.54,3.88c-64.6,0-49,93.76,0,93.76S113.13,3.88,48.54,3.88Z"/><path class="cls-4" d="M3.66,45.16c3.26-.83,7.22,3.66,8.85,10s.3,12.21-3,13S2.32,64.57.7,58.2.39,46,3.66,45.16Z"/><path class="cls-4" d="M93.45,45.16c-3.26-.83-7.23,3.66-8.85,10s-.3,12.21,3,13,7.23-3.66,8.85-10S96.71,46,93.45,45.16Z"/><path class="cls-7" d="M61.94,59.8c1.71,0,3.11-2.56,3.11-5.7s-1.4-5.7-3.11-5.7S58.83,51,58.83,54.1,60.22,59.8,61.94,59.8Z"/><path class="cls-7" d="M35.13,59.8c1.72,0,3.12-2.56,3.12-5.7s-1.4-5.7-3.12-5.7S32,51,32,54.1,33.42,59.8,35.13,59.8Z"/><path class="cls-6" d="M54.83,66.25c-2.42,6.16-10.17,6-12.59,0A9,9,0,0,0,54.83,66.25Z"/><path class="cls-1" d="M12.84,57.42c.7,6.86-1,4.91-3.43-.46S5.15,46.21,5.59,40.9C9.74-10.39,86-11,91.45,40.9,92,46.2,90.09,51.58,87.63,57s-4.13,7.32-3.43.46c.86-8.33-.42-20.32-4.82-27.37-7.8-12.48-18-5.24-31.77-5.24S27.36,19.18,18.35,30.7C12.89,37.69,11.92,48.53,12.84,57.42Z"/><path class="cls-1" d="M5.67,40C.53-14,96.42-12.68,91.41,40,80.3,7.8,16.77,7.8,5.67,40Z"/><path class="cls-8" d="M64.72,75.37c-5.58,9.82-25.58,10.09-32.37,0C41.91,79.15,55.66,78.89,64.72,75.37Z"/><path class="cls-1" d="M68.24,45.17C84.46,20,73.54,13.08,55.36,5.63,78.7,2.52,106.46,25.42,68.24,45.17Z"/><path class="cls-1" d="M48.44,43.59c24.88-19.32,17.3-27.66,3.62-37.91C77.28,7.51,96,33.48,48.44,43.59Z"/><path class="cls-1" d="M30.69,37.94c21.63-12.83,25.37-22,13.64-36.37C70.89,9.63,80.32,37,30.69,37.94Z"/><path class="cls-1" d="M12,35.88C23.48,23.05,29.61,17.49,30.36,4.28,58.3,11.35,77.53,24.6,12,35.88Z"/><path class="cls-9" d="M63.69,114.2,70.57,138l18.23-4.95-7-24.12C78.56,97.57,60.57,103.4,63.69,114.2Z"/><path class="cls-9" d="M34,114.2,27.1,138,8.86,133.08l7-24.12C19.11,97.57,37.09,103.4,34,114.2Z"/><polygon class="cls-10" points="8.86 133.08 9.84 129.69 23.15 133.26 23.15 136.96 8.86 133.08"/><path class="cls-11" d="M16.52,276.66a9.86,9.86,0,0,0-.64,1.56c-2.44,7.86,5.87,7.7,11,6.48,5.32-1.28,7.79-4.68,10.72-5.53,3.85-1.11,5.68-2.84,6.11-5.77-4.08,3.18-10.26,5.78-16.81,7.93A14.53,14.53,0,0,0,16.52,276.66Z"/><path class="cls-12" d="M25.27,268.2a5.76,5.76,0,0,1,1,.41h.09a10,10,0,0,1,5.48.85.6.6,0,0,1-.57,1.05,7.57,7.57,0,0,0-3.45-.75,11.35,11.35,0,0,1,1.85,2.51.6.6,0,0,1,.15.75.61.61,0,0,1-.82.24,8.67,8.67,0,0,0-3.18-.92,13.06,13.06,0,0,1,1.76,2.49.6.6,0,0,1-.21.82.61.61,0,0,1-.82-.22,14.75,14.75,0,0,0-1.26-1.89v-2.44a12.51,12.51,0,0,1,2.45.38,7.33,7.33,0,0,0-1.11-1.19,5.35,5.35,0,0,0-.62-.44c-.24,0-.49.05-.72.09Zm-5.93,5.15a.58.58,0,0,1-.83-.13.59.59,0,0,1,.12-.83,6.24,6.24,0,0,1,2.09-.88h0a.61.61,0,0,1-.45-.16.59.59,0,0,1-.17-.15.6.6,0,0,1,.13-.83,9.6,9.6,0,0,1,3-1.23l-.29,0a.6.6,0,0,1-.11-1.19,6.59,6.59,0,0,1,2.49.23v1.73a16.65,16.65,0,0,0-2.46.55,6.14,6.14,0,0,1,1.41.58l1.05,0v2.44a7.4,7.4,0,0,0-.83-.85,5.7,5.7,0,0,0-.55-.42A9.48,9.48,0,0,0,19.34,273.35Z"/><path class="cls-11" d="M80.23,276.59a9.49,9.49,0,0,1,.64,1.56c2.44,7.86-5.94,7.7-11,6.47-5.33-1.28-7.72-4.68-10.65-5.52-3.85-1.11-5.68-2.85-6.11-5.77,4.08,3.17,10.26,5.78,16.81,7.93A14.49,14.49,0,0,1,80.23,276.59Z"/><path class="cls-12" d="M77.41,273.28a.6.6,0,0,0,.71-1,6.45,6.45,0,0,0-2.09-.88h0a.57.57,0,0,0,.45-.15.8.8,0,0,0,.17-.15.61.61,0,0,0-.13-.84,9.52,9.52,0,0,0-3-1.22l.28,0a.6.6,0,0,0,.65-.54.6.6,0,0,0-.54-.65,6.4,6.4,0,0,0-2.49.23v1.72a16.9,16.9,0,0,1,2.46.56,5.36,5.36,0,0,0-1.41.58c-.35,0-.7,0-1,0v2.45a8.39,8.39,0,0,1,.83-.86c.18-.14.36-.28.55-.41A9.22,9.22,0,0,1,77.41,273.28Zm-5.93-5.15a5,5,0,0,0-1,.4h-.09a10.09,10.09,0,0,0-5.48.86.6.6,0,0,0-.24.81.6.6,0,0,0,.81.24,7.47,7.47,0,0,1,3.45-.76,11.39,11.39,0,0,0-1.85,2.52.6.6,0,0,0-.15.75.62.62,0,0,0,.82.24,8.3,8.3,0,0,1,3.18-.92,13.33,13.33,0,0,0-1.76,2.48.59.59,0,0,0,.22.82.58.58,0,0,0,.81-.22,14.69,14.69,0,0,1,1.26-1.88V271a12.52,12.52,0,0,0-2.45.39,7,7,0,0,1,1.12-1.2,4.51,4.51,0,0,1,.61-.44l.72.09Z"/><polygon class="cls-9" points="37.07 108.78 48.54 114.18 60 108.78 73.92 137.12 23.15 136.96 37.07 108.78"/><polygon class="cls-10" points="36.39 98.4 32.64 102.72 37.26 120.88 45.04 111.66 36.39 98.4"/><polygon class="cls-10" points="60.89 98.4 64.64 102.72 60.03 120.88 52.24 111.66 60.89 98.4"/><path class="cls-13" d="M53.12,112.7a8.22,8.22,0,0,1-4.58,1.48l3.7-2.52.88,1Zm-4.58,1.48L45,111.66,44,113A10.93,10.93,0,0,0,48.54,114.18Z"/><polygon class="cls-10" points="88.8 133.08 87.82 129.69 73.92 133.42 73.92 137.12 88.8 133.08"/></g></g></svg>