<svg xmlns="http://www.w3.org/2000/svg" viewBox="0 0 103.2 278.72"><defs><style>.cls-1{fill:#aa7764;}.cls-1,.cls-10,.cls-2,.cls-3,.cls-4,.cls-5,.cls-6,.cls-9{fill-rule:evenodd;}.cls-2{fill:#fcdabe;}.cls-3,.cls-8{fill:#2c8245;}.cls-4{fill:#5ebf79;}.cls-5{fill:#e0ba9b;}.cls-6,.cls-7{fill:#425156;}.cls-9{fill:#bf9470;}.cls-10{fill:#fcc379;}</style></defs><title>person8</title><g id="Layer_2" data-name="Layer 2"><g id="Objects"><path class="cls-1" d="M51,0C1.41.79-32.06,97.17,48.25,99.57,139.22,102.28,100.68-.79,51,0Z"/><path class="cls-2" d="M36.36,262.51c-3.38,4.88-7.87,7.69-9,11.21-.64,2-.16,4.51,1.86,4.76,8.71,1.08,11.24-3.2,14.34-4.07,5.36-1.5,5.5-4.59,3.33-11.9S39.07,257.94,36.36,262.51Z"/><path class="cls-2" d="M31.27,169.7H71.12L66,262.51H55.49l-2.14-70.59c-.17-5.6-4.13-5.63-4.3,0L46.9,262.51H36.36Z"/><path class="cls-2" d="M68.11,114.22l21,27.23c3,3.87,10.59-3.7,8.31-7.53L80.93,106.27C75,96.3,61.38,105.47,68.11,114.22Z"/><path class="cls-2" d="M33.71,114.22l-21,27c-3,3.86-10.61-3.71-8.32-7.53l16.46-27.44C26.86,96.32,40.48,105.5,33.71,114.22Z"/><path class="cls-3" d="M20.9,106.25c3.81-6.32,10.71-4.89,13.46-.77l-5.81,15.4Z"/><path class="cls-2" d="M75.55,149h0c0-.45-.66-.61-1.08-.41l-6.3,2.83c-.42.2-.41.68-.46,1.13h0c0,.45.66.61,1.08.42l6.3-2.84A.9.9,0,0,0,75.55,149Z"/><path class="cls-2" d="M26.27,149h0c-.05-.45.65-.6,1.08-.41l6.29,2.83c.43.2.42.68.47,1.13h0c0,.45-.66.61-1.08.42l-6.3-2.84A.9.9,0,0,1,26.27,149Z"/><path class="cls-3" d="M81.38,106.25c-3.81-6.32-10.71-4.89-13.47-.77l5.82,15.4Z"/><polygon class="cls-4" points="74.92 101.74 71.12 169.7 50.87 169.7 31.27 169.7 27.48 101.74 74.92 101.74"/><path class="cls-3" d="M39.28,101.74H62.91a8.22,8.22,0,0,1-11.82,11.37,8.22,8.22,0,0,1-11.81-11.37Z"/><path class="cls-2" d="M51.2,64.91h0A11.5,11.5,0,0,1,62.66,76.38v24.89A11.5,11.5,0,0,1,51.2,112.73h0a11.5,11.5,0,0,1-11.47-11.46V76.38A11.5,11.5,0,0,1,51.2,64.91Z"/><path class="cls-5" d="M62.66,93.28h0c0,9.57-22.93,9.57-22.93,0h0C39.73,83.71,62.66,83.71,62.66,93.28Z"/><path class="cls-2" d="M51.2,5.51C1,5.51,4.88,52.53,14.45,69.08,27.51,91.65,45.07,96.65,51.2,96.65s23.69-5,36.75-27.57C97.52,52.53,101.36,5.51,51.2,5.51Z"/><polygon class="cls-6" points="30.43 154.58 32.75 196.62 69.54 196.62 71.96 154.66 30.43 154.58"/><path class="cls-2" d="M66.06,262.51c3.37,4.88,7.87,7.69,9,11.21.63,2,.16,4.51-1.86,4.76-8.71,1.08-11.24-3.2-14.34-4.07-5.36-1.5-5.5-4.59-3.33-11.9S63.35,257.94,66.06,262.51Z"/><path class="cls-2" d="M6.74,45.64c3.26-.81,7.22,3.55,8.85,9.75s.3,11.86-3,12.67S5.4,64.51,3.78,58.32,3.47,46.45,6.74,45.64Z"/><path class="cls-2" d="M95.68,45.64c-3.27-.81-7.23,3.55-8.85,9.75s-.3,11.86,3,12.67,7.22-3.55,8.85-9.74S98.94,46.45,95.68,45.64Z"/><path class="cls-6" d="M64.6,59.87c1.71,0,3.11-2.49,3.11-5.54s-1.4-5.54-3.11-5.54-3.11,2.49-3.11,5.54S62.89,59.87,64.6,59.87Z"/><ellipse class="cls-7" cx="37.8" cy="54.33" rx="3.11" ry="5.54"/><path class="cls-5" d="M57.49,66.14a6.67,6.67,0,0,1-12.58,0A9.14,9.14,0,0,0,57.49,66.14Z"/><path class="cls-3" d="M30.2,269.49a12.07,12.07,0,0,0-2.83,4.23c-1.59,5,2.6,5.23,6.3,4.85,5.28-.55,7.4-3.46,9.9-4.16,4.82-1.35,5.42-4,3.92-9.8-.21,5.08-8.23,8.36-10.24,9S30.58,271.47,30.2,269.49Z"/><path class="cls-3" d="M72.22,269.49a12.07,12.07,0,0,1,2.83,4.23c1.7,5.33-3.36,5.34-7.14,4.74-4.67-.75-6.7-3.39-9.06-4-4.82-1.35-5.42-4-3.92-9.8.21,5.08,8.27,8.82,10.36,9S72.91,270.11,72.22,269.49Z"/><path class="cls-2" d="M75.08,148l14-16.15c7.12-3.06,13.67,6,5.34,10.44L79.7,156.18Z"/><path class="cls-2" d="M73.34,149.17l2.5-1.57,4.64,8.23L78,157.41C70.27,161.94,64,154.71,73.34,149.17Z"/><path class="cls-2" d="M26.74,148l-14-16.36c-7.12-3-13.67,6-5.34,10.44l14.73,14.07Z"/><path class="cls-2" d="M28.48,149.17,26,147.59l-4.64,8.24,2.51,1.58C31.55,161.94,37.81,154.71,28.48,149.17Z"/><path class="cls-8" d="M39.68,272.81a2.61,2.61,0,0,0-.17-.52A8.42,8.42,0,0,0,36.25,269a8.05,8.05,0,0,0-4.64-1.29c.66-.69,1.35-1.41,2-2.18a13.73,13.73,0,0,1,3.89,1.5,11,11,0,0,1,4.17,4.34,4.46,4.46,0,0,1,.33,1.08Z"/><path class="cls-8" d="M62.85,272.81a2.61,2.61,0,0,1,.17-.52A8.42,8.42,0,0,1,66.28,269a8.05,8.05,0,0,1,4.64-1.29c-.66-.69-1.35-1.41-2-2.18A13.73,13.73,0,0,0,65,267a10.92,10.92,0,0,0-4.17,4.34,4.46,4.46,0,0,0-.33,1.08Z"/><path class="cls-9" d="M64.51,75c-4.89,4.87-21.06,4.81-26.24,0A81.27,81.27,0,0,0,64.51,75Z"/><path class="cls-5" d="M57.49,79.61c-2.27,3-9.79,3-12.2,0A18.37,18.37,0,0,0,57.49,79.61Z"/><path class="cls-1" d="M17.26,53.82c-1.52,6.1-2.72,6-5.19.59S5.6,46.27,6.56,41c9.17-50,82.77-48,87.94-1.22.58,5.3-1.75,9.22-4.21,14.6s-3.69,7.47-4.66.64C80.14,16.3,30,2.44,17.26,53.82Z"/><path class="cls-1" d="M51.22,4.28C20.47,4.52,12.9,21.63,8.34,35.13c2.7,3.59.54-.91,4.21,3,21.53,8,55.86,8,76.43,0,4-4.23-.3-.65,2.47-4.54C86.06,18.28,75,4.08,51.22,4.28Z"/><path class="cls-10" d="M15.35,54.13C22.73,11.06,79,13.78,87.05,52.58,97.32-1.7,7.18-6.92,15.35,54.13Z"/></g></g></svg>