<svg xmlns="http://www.w3.org/2000/svg" viewBox="0 0 101.25 276.75"><defs><style>.cls-1{fill:#e88c6a;}.cls-1,.cls-2,.cls-3,.cls-4,.cls-5,.cls-6,.cls-7,.cls-8,.cls-9{fill-rule:evenodd;}.cls-2{fill:#fcdabe;}.cls-3{fill:#ff94a8;}.cls-4{fill:#e0ba9b;}.cls-5{fill:#e3687f;}.cls-6{fill:#425156;}.cls-7{fill:#e82c4f;}.cls-8{fill:#f5a487;}.cls-9{fill:#bf9470;}</style></defs><title>person6</title><g id="Layer_2" data-name="Layer 2"><g id="Objects"><path class="cls-1" d="M54.82,0c50.24,0,55.05,58.69,36.4,92.27C83,107,69.67,112.08,54.67,112.08S26.31,107,18.14,92.2C-.37,58.61,4.62,0,54.82,0Z"/><path class="cls-2" d="M69.51,260.5c3.37,4.88,7.86,7.69,9,11.21.63,2,.16,4.51-1.86,4.76-8.71,1.08-11.24-3.2-14.35-4.07-5.36-1.5-5.49-4.59-3.33-11.9S66.79,255.93,69.51,260.5Z"/><path class="cls-2" d="M74.59,167.69H34.74l5.09,92.81H50.37l2.15-70.59c.17-5.6,4.13-5.63,4.3,0L59,260.5H69.51Z"/><polygon class="cls-2" points="5.9 125.15 0.51 131.96 8.93 137.65 14.65 133.3 13.85 126.61 5.9 125.15"/><path class="cls-3" d="M36.81,111.4,15.92,132c-3.08-2.21-8.28-5.16-10-6.89L24,103.45C31.45,94.5,44.69,103.61,36.81,111.4Z"/><path class="cls-3" d="M71.64,107.52l7.06,39.25c.86,4.76,10.28.18,10.14-2.26l-2-35.82C86.14,97.19,69.7,96.76,71.64,107.52Z"/><polygon class="cls-3" points="30.95 99.73 34.74 167.69 54.99 167.69 74.59 167.69 78.39 99.73 30.95 99.73"/><path class="cls-2" d="M54.67,62.9h0A11.5,11.5,0,0,0,43.2,74.37V99.26a11.5,11.5,0,0,0,11.47,11.46h0A11.5,11.5,0,0,0,66.13,99.26V74.37A11.5,11.5,0,0,0,54.67,62.9Z"/><path class="cls-4" d="M43.2,91.27h0c0,9.57,22.93,9.57,22.93,0h0C66.13,81.7,43.2,81.7,43.2,91.27Z"/><path class="cls-2" d="M54.67,3.5c50.16,0,46.32,47,36.75,63.57C78.36,89.64,60.79,94.64,54.67,94.64S31,89.64,17.92,67.07C8.35,50.52,4.51,3.5,54.67,3.5Z"/><path class="cls-2" d="M77.05,173.16h0c-.38-.26-.86.26-.89.71l-.51,6.73c0,.45.41.68.79.94h0c.38.26.87-.26.9-.72l.5-6.72A.9.9,0,0,0,77.05,173.16Z"/><path class="cls-2" d="M76.14,176l.22-2.89,9.55,1.37-.22,2.9C84.77,186.12,75.05,186.61,76.14,176Z"/><path class="cls-2" d="M76.25,174l2.07-27.78c1.78-7.36,10.14-8.25,10.53-1.7l-3.13,30.82Z"/><path class="cls-2" d="M28.66,145.33h0c0-.46.74-.52,1.13-.27l5.83,3.67c.39.24.31.72.29,1.17h0c0,.46-.73.52-1.13.27L29,146.5A.89.89,0,0,1,28.66,145.33Z"/><path class="cls-5" d="M74.59,167.69l-1.47,26.92H36.32l-1.58-26.92,18.55-57a13.68,13.68,0,0,0,2.56,0Z"/><path class="cls-2" d="M39.8,260.5c-3.37,4.88-7.86,7.69-9,11.21-.64,2-.17,4.51,1.86,4.76,8.71,1.08,11.24-3.2,14.34-4.07,5.36-1.5,5.5-4.59,3.33-11.9S42.52,255.93,39.8,260.5Z"/><path class="cls-6" d="M41.27,57.86c1.71,0,3.11-2.49,3.11-5.54s-1.4-5.54-3.11-5.54-3.11,2.49-3.11,5.54S39.55,57.86,41.27,57.86Z"/><path class="cls-6" d="M68.07,57.86c1.71,0,3.11-2.49,3.11-5.54s-1.4-5.54-3.11-5.54S65,49.27,65,52.32,66.36,57.86,68.07,57.86Z"/><path class="cls-4" d="M48.37,64.13a6.68,6.68,0,0,0,12.59,0A9.15,9.15,0,0,1,48.37,64.13Z"/><path class="cls-7" d="M75.67,267.48a12.07,12.07,0,0,1,2.83,4.23c1.64,5.15-3,5.29-6.7,4.8-5-.64-7.07-3.43-9.51-4.11-4.81-1.35-5.41-4-3.91-9.8.2,5.08,5,6.46,10.24,9S78.15,271.59,75.67,267.48Z"/><path class="cls-7" d="M33.64,267.48a12.07,12.07,0,0,0-2.83,4.23c-1.87,5.89,4.82,5.45,8.6,4.42S44.92,273,47,272.4c4.81-1.35,5.41-4,3.91-9.8-.2,5.08-5,6.46-10.24,9S31.16,271.59,33.64,267.48Z"/><path class="cls-2" d="M29.83,145.21,9.24,129.06c-7.12-3.06-13.67,6-5.34,10.44l21.32,13.86Z"/><path class="cls-2" d="M31.58,146.35l-2.51-1.57L24.44,153l2.5,1.58C34.65,159.12,40.91,151.89,31.58,146.35Z"/><path class="cls-1" d="M42.67,39.89a7.69,7.69,0,0,0-8.06,3.59c-.75,1.32-.24,1.48.27.67,2-3.15,5-3.45,7.6-2.9C43.87,41.54,44.23,40.25,42.67,39.89Z"/><path class="cls-1" d="M66.64,39.89a7.69,7.69,0,0,1,8.06,3.59c.76,1.32.24,1.48-.27.67-2-3.15-5-3.45-7.59-2.9C65.44,41.54,65.08,40.25,66.64,39.89Z"/><polygon class="cls-5" points="88.84 144.51 78.32 146.21 77.47 138.39 88.28 136.49 88.84 144.51"/><path class="cls-1" d="M90.85,91.72C114.66,19.18,83.63,1.62,55,1.19,26.23.75-5.18,19.94,18.4,91c.1-30.41,15.75-58.67,36.22-70.13C75.1,32.34,90.75,61.3,90.85,91.72Z"/><path class="cls-8" d="M28.3,98.3c-29-34.84,13.05-77.37,26.32-84.87C37.85,12-7.39,60,28.3,98.3Z"/><path class="cls-8" d="M81,98.3c29-34.84-13-77.37-26.33-84.87C71.4,12,116.64,60,81,98.3Z"/><path class="cls-2" d="M95.92,43.63a4.3,4.3,0,0,0-3.5.88,55.47,55.47,0,0,1,4.88,16,21.78,21.78,0,0,0,1.59-4.21C100.51,50.12,99.19,44.44,95.92,43.63Z"/><path class="cls-2" d="M14.12,43.63a4.3,4.3,0,0,1,3.5.88,55.15,55.15,0,0,0-4.87,16,21.16,21.16,0,0,1-1.6-4.21C9.53,50.12,10.85,44.44,14.12,43.63Z"/><path class="cls-9" d="M38.48,76.23c7.26,3.26,23.4,3.85,32.37,0A144.07,144.07,0,0,1,38.48,76.23Z"/><path class="cls-4" d="M47.15,79.51c2.8,3.81,12.07,3.75,15,0A22,22,0,0,1,47.15,79.51Z"/><polygon class="cls-5" points="4.63 126.67 14.65 133.3 20.24 127.78 9.79 120.48 4.63 126.67"/></g></g></svg>