<svg xmlns="http://www.w3.org/2000/svg" viewBox="0 0 102.78 276.75"><defs><style>.cls-1{fill:#e8972d;}.cls-1,.cls-2,.cls-3,.cls-4,.cls-5,.cls-6,.cls-7{fill-rule:evenodd;}.cls-2{fill:#fcdabe;}.cls-3{fill:#e0ba9b;}.cls-4{fill:#869ab5;}.cls-5{fill:#425156;}.cls-6{fill:#bf9470;}.cls-7{fill:#647b99;}</style></defs><title>person2</title><g id="Layer_2" data-name="Layer 2"><g id="Objects"><path class="cls-1" d="M48,0C-24.38,0-1,124.76,48.12,124.76S120.3,0,48,0Z"/><path class="cls-2" d="M33.28,260.5c-3.38,4.88-7.87,7.69-9,11.21-.64,2-.17,4.51,1.86,4.76,8.71,1.08,11.24-3.2,14.34-4.07,5.36-1.5,5.5-4.59,3.33-11.9S36,255.93,33.28,260.5Z"/><path class="cls-2" d="M28.19,167.69H68L63,260.5H52.41l-2.14-70.59c-.17-5.6-4.13-5.63-4.31,0L43.82,260.5H33.28Z"/><polygon class="cls-2" points="71.84 99.73 68.04 167.69 47.79 167.69 28.19 167.69 24.4 99.73 71.84 99.73"/><path class="cls-2" d="M48.12,62.9h0A11.5,11.5,0,0,1,59.58,74.37V99.26a11.5,11.5,0,0,1-11.46,11.46h0A11.5,11.5,0,0,1,36.65,99.26V74.37A11.5,11.5,0,0,1,48.12,62.9Z"/><path class="cls-2" d="M66,111.4l27.54,27.23c3.49,3.44,11.18-4.09,8.32-7.53l-23-27.65C71.34,94.5,58.1,103.61,66,111.4Z"/><path class="cls-3" d="M59.58,91.27h0c0,9.57-22.93,9.57-22.93,0h0C36.65,81.7,59.58,81.7,59.58,91.27Z"/><path class="cls-2" d="M48.12,3.5C-2,3.5,1.8,50.52,11.37,67.07,24.43,89.64,42,94.64,48.12,94.64s23.68-5,36.75-27.57C94.44,50.52,98.28,3.5,48.12,3.5Z"/><path class="cls-2" d="M29.85,107.54l-5.77,39.23c-.7,4.78-10.23,2.16-10.14-2.26l.75-35.79C14.94,97.21,31.44,96.73,29.85,107.54Z"/><path class="cls-2" d="M25.73,173.16h0c.38-.26.87.26.9.71l.5,6.73c0,.45-.4.68-.79.94h0c-.38.26-.86-.26-.9-.72l-.5-6.72A.91.91,0,0,1,25.73,173.16Z"/><path class="cls-2" d="M26.65,176l-.22-2.89-9.56,1.37.22,2.9C18,186.12,27.73,186.61,26.65,176Z"/><path class="cls-2" d="M26.53,174l-2.06-27.78c-1.79-7.36-12-7.2-10.62,1.93l3.21,27.19Z"/><path class="cls-2" d="M74.12,145.33h0c0-.46-.74-.52-1.13-.27l-5.82,3.67c-.4.24-.32.72-.3,1.17h0c0,.46.74.52,1.13.27l5.82-3.67A.87.87,0,0,0,74.12,145.33Z"/><path class="cls-4" d="M79.54,104.34l4.26,5.11-13.06,8.27-2.7,50H28.19L26,120l-11.48-3.72.15-7.51C36.2,115.31,60.39,118,79.54,104.34Z"/><polygon class="cls-4" points="28.19 167.69 29.67 194.61 66.46 194.61 68.04 167.69 47.88 142.43 28.19 167.69"/><path class="cls-2" d="M63,260.5c3.37,4.88,7.87,7.69,9,11.21.63,2,.16,4.51-1.86,4.76-8.71,1.08-11.24-3.2-14.34-4.07-5.36-1.5-5.5-4.59-3.33-11.9S60.27,255.93,63,260.5Z"/><path class="cls-2" d="M3.66,43.63c3.26-.81,7.22,3.55,8.85,9.75s.3,11.86-3,12.67S2.32,62.5.69,56.31.39,44.44,3.66,43.63Z"/><path class="cls-2" d="M92.6,43.63c-3.27-.81-7.23,3.55-8.86,9.75s-.3,11.86,3,12.67,7.22-3.55,8.85-9.74S95.86,44.44,92.6,43.63Z"/><path class="cls-5" d="M61.52,57.86c1.71,0,3.11-2.49,3.11-5.54s-1.4-5.54-3.11-5.54-3.11,2.49-3.11,5.54S59.81,57.86,61.52,57.86Z"/><path class="cls-5" d="M34.72,57.86c1.71,0,3.11-2.49,3.11-5.54s-1.4-5.54-3.11-5.54-3.12,2.49-3.12,5.54S33,57.86,34.72,57.86Z"/><path class="cls-6" d="M64.3,72.39c-6,6-26,5.93-32.37,0C40.81,76.09,54.5,76,64.3,72.39Z"/><path class="cls-3" d="M54.41,64.13a6.68,6.68,0,0,1-12.59,0A9.15,9.15,0,0,0,54.41,64.13Z"/><path class="cls-1" d="M18,34.12c-7.6,6.65-7.12,16.27-6.6,22.94s-2.42,2-4.22-3.27-3.07-10.5-2.67-16.4S21.57,22.05,18,34.12Z"/><path class="cls-1" d="M91,45.76a80.17,80.17,0,0,0-20.83-6.54c-1.89-11-5-16.8-7.06-19.46,1.75,6.39,3.1,12.81,4.16,19a131.19,131.19,0,0,0-41.35,1,201.16,201.16,0,0,1,4.32-20c-2.08,2.75-5.38,8.85-7.24,20.53a101.12,101.12,0,0,0-17.3,4.77C3.18,25.38,15.63.49,47.64.49S93.63,25.58,91,45.76Z"/><path class="cls-1" d="M78.33,34.12c7.6,6.65,7.12,16.27,6.6,22.94s2.42,2,4.22-3.27,3.07-10.5,2.67-16.4S74.71,22.05,78.33,34.12Z"/><path class="cls-7" d="M27.12,267.48a11.94,11.94,0,0,0-2.83,4.23c-1.64,5.15,2.94,5.29,6.69,4.8,5-.64,7.08-3.43,9.51-4.11,4.82-1.35,5.42-4,3.92-9.8-.21,5.08-5,6.46-10.24,9S24.63,271.59,27.12,267.48Z"/><path class="cls-7" d="M69.14,267.48A12.07,12.07,0,0,1,72,271.71c1.88,5.89-4.81,5.45-8.6,4.42s-5.5-3.14-7.6-3.73c-4.82-1.35-5.42-4-3.92-9.8.21,5.08,5,6.46,10.24,9S71.63,271.59,69.14,267.48Z"/><path class="cls-3" d="M55.64,78c-2.81,3.7-12.07,3.64-15,0A22.63,22.63,0,0,0,55.64,78Z"/><path class="cls-2" d="M73,145.21l20.6-16.15c7.11-3.06,13.66,6,5.33,10.44L77.57,153.36Z"/><path class="cls-2" d="M71.21,146.35l2.5-1.57L78.35,153l-2.51,1.58C68.14,159.12,61.88,151.89,71.21,146.35Z"/><path class="cls-1" d="M60.11,39.89a7.68,7.68,0,0,1,8.06,3.59c.76,1.32.24,1.48-.27.67-2-3.15-5-3.45-7.59-2.9C58.91,41.54,58.56,40.25,60.11,39.89Z"/><path class="cls-1" d="M36.14,39.89a7.69,7.69,0,0,0-8.06,3.59c-.75,1.32-.24,1.48.27.67,2-3.15,5-3.45,7.6-2.9C37.34,41.54,37.7,40.25,36.14,39.89Z"/><path class="cls-7" d="M83.8,109.45c-22.08,21-59.7,11.28-69.26,6.78l.11-7.51c10,4.2,42.89,10.77,64.78-4.2Z"/></g></g></svg>