<svg xmlns="http://www.w3.org/2000/svg" viewBox="0 0 96.25 277.23"><defs><style>.cls-1{fill:#fcdabe;}.cls-1,.cls-10,.cls-2,.cls-3,.cls-4,.cls-5,.cls-7,.cls-8,.cls-9{fill-rule:evenodd;}.cls-2{fill:#e8972d;}.cls-3{fill:#4e6078;}.cls-4{fill:#e0ba9b;}.cls-5{fill:#869ab5;}.cls-6,.cls-7{fill:#425156;}.cls-8{fill:#bf9470;}.cls-9{fill:#e3687f;}.cls-10{fill:#fcc379;}</style></defs><title>person10</title><g id="Layer_2" data-name="Layer 2"><g id="Objects"><path class="cls-1" d="M26.53,174.47l-2.06-27.78c-1.79-7.36-11.33-6.48-9.93,2.64l2.52,26.48Z"/><path class="cls-1" d="M69.52,174.47l2.07-27.78c1.78-7.36,11.42-7.2,10,1.93L79,175.81Z"/><path class="cls-2" d="M47.7,1.34C32.77-3.9,19.54,7.2,12.19,17.53c-24.32,34.15-1.78,107.71,35.93,107.71,37,0,59.21-70.8,37-105.73C77.84,8.07,65-3.9,47.7,1.34Z"/><path class="cls-3" d="M29.85,108l-5.77,39.22c-.7,4.78-10.23,2.16-10.14-2.26l.75-35.79C14.94,97.69,31.44,97.21,29.85,108Z"/><path class="cls-3" d="M66.2,108,72,147.25c.7,4.78,10.23,2.16,10.14-2.26l-.75-35.79C81.12,97.69,64.61,97.21,66.2,108Z"/><polygon class="cls-1" points="71.84 100.21 62.75 168.17 47.79 168.17 32.29 168.17 24.39 100.21 71.84 100.21"/><path class="cls-1" d="M33.28,261c-3.38,4.88-7.87,7.69-9,11.21-.64,2-.17,4.51,1.86,4.76,8.71,1.08,11.24-3.2,14.34-4.07,5.36-1.5,5.5-4.58,3.33-11.9S36,256.41,33.28,261Z"/><path class="cls-1" d="M28.19,168.17H68L63,261H52.41l-2.14-70.59c-.17-5.6-4.14-5.63-4.31,0L43.82,261H33.28Z"/><path class="cls-1" d="M70.32,173.64h0c-.38-.26-.86.26-.9.71l-.5,6.73c0,.45.4.68.79.94h0c.38.26.86-.26.9-.72l.5-6.72A.9.9,0,0,0,70.32,173.64Z"/><path class="cls-1" d="M69.41,176.51l.22-2.89L79.18,175l-.22,2.9C78,186.6,68.32,187.09,69.41,176.51Z"/><path class="cls-1" d="M48.12,63.38h0A11.5,11.5,0,0,1,59.58,74.85V99.74A11.49,11.49,0,0,1,48.12,111.2h0A11.49,11.49,0,0,1,36.65,99.74V74.85A11.5,11.5,0,0,1,48.12,63.38Z"/><path class="cls-4" d="M59.58,91.75h0c0,9.57-22.93,9.57-22.93,0h0C36.65,82.18,59.58,82.18,59.58,91.75Z"/><path class="cls-1" d="M48.12,4C-2,4,1.8,51,11.37,67.55,24.43,90.13,42,95.12,48.12,95.12s23.68-5,36.75-27.57C94.44,51,98.28,4,48.12,4Z"/><path class="cls-1" d="M25.73,173.64h0c.38-.26.86.26.9.71l.5,6.73c0,.45-.4.68-.79.94h0c-.38.26-.86-.26-.9-.72l-.5-6.72A.91.91,0,0,1,25.73,173.64Z"/><path class="cls-1" d="M26.65,176.51l-.22-2.89L16.87,175l.22,2.9C18,186.6,27.73,187.09,26.65,176.51Z"/><path class="cls-3" d="M81.23,107.69l.28,8.54-10.77,3.7L68,168.17H28.19l-2.65-47.52-11-3.94.15-7.51C34.18,115.13,54.73,119.7,81.23,107.69Z"/><polygon class="cls-5" points="27.49 155.7 29.96 212.62 66.76 212.62 68.74 155.7 27.49 155.7"/><path class="cls-1" d="M63,261c3.37,4.88,7.87,7.69,9,11.21.63,2,.16,4.51-1.86,4.76-8.71,1.08-11.24-3.2-14.34-4.07-5.37-1.5-5.5-4.58-3.33-11.9S60.27,256.41,63,261Z"/><path class="cls-1" d="M3.66,44.11c3.26-.81,7.22,3.55,8.85,9.75s.3,11.86-3,12.67S2.32,63,.7,56.79.39,44.92,3.66,44.11Z"/><path class="cls-1" d="M92.6,44.11c-3.27-.81-7.23,3.55-8.86,9.75s-.3,11.86,3,12.67,7.22-3.55,8.85-9.74S95.86,44.92,92.6,44.11Z"/><ellipse class="cls-6" cx="61.52" cy="52.8" rx="3.11" ry="5.54"/><path class="cls-7" d="M34.71,58.34c1.72,0,3.12-2.49,3.12-5.54s-1.4-5.54-3.12-5.54S31.6,49.75,31.6,52.8,33,58.34,34.71,58.34Z"/><path class="cls-8" d="M64.3,72.87c-6,6-26,5.93-32.37,0C40.81,76.57,54.5,76.52,64.3,72.87Z"/><path class="cls-4" d="M54.41,64.61a6.68,6.68,0,0,1-12.59,0A9.15,9.15,0,0,0,54.41,64.61Z"/><path class="cls-2" d="M18,34.6c-7.6,6.65-7.12,16.27-6.6,22.94s-2.42,2-4.22-3.27S4.05,43.78,4.46,37.88,21.57,22.53,18,34.6Z"/><path class="cls-2" d="M78.33,34.6c7.6,6.65,7.12,16.27,6.6,22.94s2.42,2,4.22-3.27,3.07-10.49,2.67-16.39S74.71,22.53,78.33,34.6Z"/><path class="cls-9" d="M27.12,268a11.69,11.69,0,0,0-2.83,4.22c-1.64,5.15,2.94,5.29,6.69,4.8,5-.64,7.08-3.42,9.51-4.11,4.82-1.35,5.42-4,3.92-9.8-.21,5.08-5,6.46-10.24,9S24.63,272.07,27.12,268Z"/><path class="cls-9" d="M69.14,268A12,12,0,0,1,72,272.19c1.88,5.9-4.81,5.45-8.6,4.43s-5.5-3.15-7.6-3.74c-4.82-1.35-5.42-4-3.92-9.8.21,5.08,5,6.46,10.24,9S71.63,272.07,69.14,268Z"/><path class="cls-4" d="M55.63,78.52c-2.8,3.7-12.06,3.64-15,0A22.6,22.6,0,0,0,55.63,78.52Z"/><path class="cls-2" d="M60.12,40.37A7.68,7.68,0,0,1,68.17,44c.76,1.32.24,1.48-.27.67-2-3.15-5-3.45-7.59-2.9C58.91,42,58.55,40.74,60.12,40.37Z"/><path class="cls-2" d="M36.14,40.37A7.69,7.69,0,0,0,28.08,44c-.75,1.32-.24,1.48.27.67,2-3.15,5-3.45,7.6-2.9C37.34,42,37.7,40.74,36.14,40.37Z"/><path class="cls-3" d="M25.3,157.92,23.74,142c-1.78-7.36-11-4.52-9.66,4.61l1,12.08,10.26-.76Z"/><path class="cls-3" d="M70.71,157.92l1.38-15.39c1.78-7.36,11.11-3,9.72,6.09L81,158.68l-10.26-.76Z"/><polygon class="cls-9" points="24.39 100.21 26.21 132.76 27.49 155.7 68.74 155.7 69.97 133.64 71.84 100.21 59.58 99.74 48.02 137.93 36.66 100.21 24.39 100.21"/><path class="cls-2" d="M48.34,16.86c27.81,6.35,35.8,23.76,37.39,35.73,2-1.72,6-6.75,5.88-12.59-.16-9.71-5.41-21.26-13.51-28.08C69.26,4.48,55.17-.53,48.34,1.85,41.52-.53,27.42,4.48,18.59,11.92,10.48,18.74,5.24,30.29,5.08,40,5,45.84,8.91,50.87,11,52.59,12.54,40.62,20.54,23.21,48.34,16.86Z"/><path class="cls-10" d="M24.93,110.34C.64,38.05,36.63,17.43,48.34,16.86,28.81,18.73-14.66,40.6,24.93,110.34Z"/><path class="cls-10" d="M71.76,110.34C96,38.05,60.06,17.43,48.34,16.86,67.87,18.73,111.35,40.6,71.76,110.34Z"/></g></g></svg>