<svg xmlns="http://www.w3.org/2000/svg" viewBox="0 0 96.25 276.71"><defs><style>.cls-1{fill:#e88c6a;}.cls-1,.cls-10,.cls-11,.cls-2,.cls-3,.cls-4,.cls-5,.cls-6,.cls-7,.cls-9{fill-rule:evenodd;}.cls-2{fill:#fcdabe;}.cls-12,.cls-3{fill:#e3687f;}.cls-4{fill:#ff94a8;}.cls-5{fill:#e0ba9b;}.cls-6{fill:#4e6078;}.cls-7,.cls-8{fill:#425156;}.cls-9{fill:#bf9470;}.cls-10{fill:#fff;}.cls-11{fill:#e82c4f;}</style></defs><title>person4</title><g id="Layer_2" data-name="Layer 2"><g id="Objects"><path class="cls-1" d="M48,0C-24.38,0-1,124.76,48.12,124.76S120.3,0,48,0Z"/><path class="cls-2" d="M33.28,260.5c-3.38,4.88-7.87,7.69-9,11.21-.64,2-.17,4.51,1.86,4.76,8.71,1.08,11.24-3.2,14.34-4.07,5.36-1.5,5.5-4.59,3.33-11.9S36,255.93,33.28,260.5Z"/><path class="cls-2" d="M28.19,167.69H68L63,260.5H52.41l-2.14-70.59c-.17-5.6-4.13-5.63-4.31,0L43.82,260.5H33.28Z"/><path class="cls-2" d="M65,112.21l21,27.23c3,3.87,10.59-3.7,8.31-7.53L77.85,104.26C71.91,94.29,58.29,103.46,65,112.21Z"/><path class="cls-2" d="M30.63,112.21l-21,27c-3,3.86-10.61-3.71-8.32-7.53l16.46-27.44C23.78,94.31,37.39,103.49,30.63,112.21Z"/><path class="cls-2" d="M72.47,147h0c0-.45-.66-.61-1.08-.41l-6.3,2.83c-.42.2-.41.68-.46,1.13h0c0,.45.65.61,1.08.42L72,148.08A.89.89,0,0,0,72.47,147Z"/><path class="cls-2" d="M23.19,147h0c-.05-.45.65-.61,1.08-.41l6.29,2.83c.43.2.42.68.47,1.13h0c0,.45-.66.61-1.08.42l-6.3-2.84A.89.89,0,0,1,23.19,147Z"/><path class="cls-3" d="M10.6,116.28l7.21-12c4.4-7.34,13-4.27,14.44,1.34l-6.79,13.27-4.62,6Z"/><path class="cls-3" d="M85.59,116.28l-7.21-12c-4.4-7.34-13-4.27-14.44,1.34l6.79,13.27,4.62,6Z"/><polygon class="cls-4" points="71.84 99.73 68.04 167.69 47.79 167.69 28.19 167.69 24.4 99.73 71.84 99.73"/><path class="cls-2" d="M48.12,62.9h0A11.5,11.5,0,0,1,59.58,74.37V99.26a11.5,11.5,0,0,1-11.46,11.46h0A11.5,11.5,0,0,1,36.65,99.26V74.37A11.5,11.5,0,0,1,48.12,62.9Z"/><path class="cls-5" d="M59.58,91.27h0c0,9.57-22.93,9.57-22.93,0h0C36.65,81.7,59.58,81.7,59.58,91.27Z"/><path class="cls-2" d="M48.12,3.5C-2,3.5,1.8,50.52,11.37,67.07,24.43,89.64,42,94.64,48.12,94.64s23.68-5,36.75-27.57C94.44,50.52,98.28,3.5,48.12,3.5Z"/><polygon class="cls-6" points="27.35 152.57 29.67 194.61 66.46 194.61 68.88 152.65 27.35 152.57"/><path class="cls-2" d="M63,260.5c3.37,4.88,7.87,7.69,9,11.21.63,2,.16,4.51-1.86,4.76-8.71,1.08-11.24-3.2-14.34-4.07-5.36-1.5-5.5-4.59-3.33-11.9S60.27,255.93,63,260.5Z"/><path class="cls-2" d="M3.66,43.63c3.26-.81,7.22,3.55,8.85,9.75s.3,11.86-3,12.67S2.32,62.5.7,56.31.39,44.44,3.66,43.63Z"/><path class="cls-2" d="M92.6,43.63c-3.27-.81-7.23,3.55-8.85,9.75s-.3,11.86,3,12.67,7.22-3.55,8.85-9.74S95.86,44.44,92.6,43.63Z"/><path class="cls-7" d="M61.52,57.86c1.71,0,3.11-2.49,3.11-5.54s-1.4-5.54-3.11-5.54-3.11,2.49-3.11,5.54S59.8,57.86,61.52,57.86Z"/><ellipse class="cls-8" cx="34.71" cy="52.32" rx="3.11" ry="5.54"/><path class="cls-9" d="M64.3,70.87c-6.21,12.38-26.16,12.38-32.37,0C41.26,75.88,55,75.88,64.3,70.87Z"/><path class="cls-5" d="M54.41,64.13a6.68,6.68,0,0,1-12.59,0A9.15,9.15,0,0,0,54.41,64.13Z"/><path class="cls-1" d="M18,34.12c-7.6,6.65-7.12,16.27-6.6,22.94s-2.42,2-4.22-3.27-3.07-10.5-2.67-16.4S21.57,22.05,18,34.12Z"/><path class="cls-1" d="M78.33,34.12c7.6,6.65,7.12,16.27,6.6,22.94s2.42,2,4.22-3.27,3.07-10.5,2.67-16.4S74.71,22.05,78.33,34.12Z"/><path class="cls-3" d="M27.12,267.48a12.07,12.07,0,0,0-2.83,4.23c-1.59,5,2.59,5.23,6.3,4.85,5.28-.55,7.4-3.46,9.9-4.16,4.82-1.35,5.42-4,3.92-9.8-.21,5.08-8.23,8.36-10.24,9S27.5,269.46,27.12,267.48Z"/><path class="cls-3" d="M69.14,267.48A12.07,12.07,0,0,1,72,271.71c1.7,5.33-3.36,5.34-7.14,4.74-4.67-.75-6.7-3.39-9.06-4.05-4.82-1.35-5.42-4-3.92-9.8.21,5.08,8.27,8.82,10.36,9S69.83,268.1,69.14,267.48Z"/><path class="cls-1" d="M74.52,16.84C68.88,33.33,23.9,53.24,7,43.74-.06,38.51,9.91,14.18,25.91,6,44.78-3.65,71.26-.59,74.52,16.84Z"/><path class="cls-1" d="M56.18,5.15c3.35,15.9,22.42,41.12,32.66,42.22C98.87,22.46,69.42-1.09,56.18,5.15Z"/><path class="cls-2" d="M72,146l14-16.15c7.12-3.06,13.67,6,5.34,10.44L76.62,154.16Z"/><path class="cls-2" d="M70.26,147.16l2.5-1.58,4.64,8.24-2.51,1.58C67.19,159.93,60.92,152.7,70.26,147.16Z"/><path class="cls-2" d="M23.66,146l-14-16.36c-7.11-3-13.66,6-5.33,10.44L19,154.16Z"/><path class="cls-2" d="M25.4,147.16l-2.51-1.58-4.63,8.24,2.51,1.58C28.47,159.93,34.73,152.7,25.4,147.16Z"/><polygon class="cls-4" points="35.99 99.73 48.12 110.72 59.58 99.58 70.73 119.61 25.46 118.87 35.99 99.73"/><polygon class="cls-3" points="52.53 102.32 48.12 110.72 62.65 99.73 59.58 96.36 52.53 102.32"/><polygon class="cls-3" points="43.7 102.32 48.12 110.72 33.59 99.73 36.65 96.36 43.7 102.32"/><path class="cls-10" d="M36.65,96.36l-3.06,3.37,2.93,12.7,7.18-10.11-7.05-6Zm22.93,0,3.07,3.37-2.94,12.7-7.18-10.11Z"/><path class="cls-11" d="M65.29,64.76c.33,0,.67,0,1,0,8-.59,9.82-3.81,10.58-7.88.83-4.47.84-6,2.11-6.44.93-.3,1.13-1.3,1.06-2.47s-.12-1.29-1.69-1.78a64.26,64.26,0,0,0-13.07-.68v1.2c4-.18,7.84.27,9,.92,2.61,1.5,2.11,8.7.07,12.26-1.43,2.51-5.44,3.77-9,3.78ZM48.68,48c-1.76,0-11.57-1.85-16.71-2.26l-1-.07V46.9c4.14.18,8.43,1,10,3,2.54,3.28-1.55,11.3-5.42,13.08a11.24,11.24,0,0,1-4.55.83V65c7,.1,9.45-4.43,10.25-5.93,1.51-2.81,3.59-6.68,7.54-6.68S53.59,56,55.1,58.76c.81,1.5,3.17,6.09,10.19,6V63.63a11.17,11.17,0,0,1-4.55-.83c-3.88-1.78-8-9.8-5.43-13.09,1.54-2,5.83-2.85,10-3v-1.2l-1,.07C59.66,45.9,52.83,47.93,48.68,48ZM31,45.69a65,65,0,0,0-13.07.68c-1.58.5-1.62.62-1.69,1.79s.12,2.16,1,2.46c1.27.41,1.28,2,2.12,6.44.76,4.07,2.61,7.29,10.57,7.88.35,0,.69,0,1,0V63.85c-3.61,0-7.62-1.27-9.06-3.77-2-3.57-2.54-10.77.07-12.27,1.14-.65,5-1.09,9-.91Z"/><path class="cls-12" d="M36.6,270.8a2.61,2.61,0,0,0-.17-.52A8.42,8.42,0,0,0,33.17,267a8.05,8.05,0,0,0-4.64-1.29c.66-.69,1.35-1.41,2-2.18a13.73,13.73,0,0,1,3.89,1.5,10.92,10.92,0,0,1,4.17,4.34,4.46,4.46,0,0,1,.33,1.08Z"/><path class="cls-12" d="M59.77,270.8a2.61,2.61,0,0,1,.17-.52A8.42,8.42,0,0,1,63.2,267a8.05,8.05,0,0,1,4.64-1.29c-.66-.69-1.35-1.41-2-2.18a13.73,13.73,0,0,0-3.89,1.5,10.86,10.86,0,0,0-4.17,4.34,4.46,4.46,0,0,0-.33,1.08Z"/><path class="cls-1" d="M58.41,38.76a7.7,7.7,0,0,1,8.82.06c1.22.92.81,1.27,0,.73-3.08-2.09-5.93-1.18-8.12.37C58,40.75,57.12,39.72,58.41,38.76Z"/></g></g></svg>