<svg xmlns="http://www.w3.org/2000/svg" viewBox="0 0 97.11 297.2"><defs><style>.cls-1{fill:#aa7764;}.cls-1,.cls-10,.cls-11,.cls-2,.cls-3,.cls-4,.cls-6,.cls-7,.cls-9{fill-rule:evenodd;}.cls-2{fill:#e3687f;}.cls-3{fill:#869ab5;}.cls-4{fill:#fcdabe;}.cls-5{fill:#d1e2ec;}.cls-6{fill:#e0ba9b;}.cls-7{fill:#425156;}.cls-8{fill:#9ab5c4;}.cls-9{fill:#bf9470;}.cls-10{fill:#c47816;}.cls-11,.cls-12{fill:#ff94a8;}</style></defs><title>person5</title><g id="Layer_2" data-name="Layer 2"><g id="Objects"><path class="cls-1" d="M48.54,13c-64.69,0-49.11,85.75,0,85.75S113.23,13,48.54,13Z"/><path class="cls-2" d="M27.89,274.54c-4.52,6.72-10.53,10.59-12,15.44-2.43,7.83,6.31,7.84,11.44,6.36,4.82-1.38,7.46-4.61,10.24-5.41,7.17-2.07,7.36-6.32,4.46-16.39S31.52,268.25,27.89,274.54Z"/><path class="cls-2" d="M68.87,274.54c4.51,6.72,10.52,10.59,12,15.44,2.48,8-6.73,7.73-11.73,6.26-4.73-1.4-7.19-4.52-9.95-5.31-7.17-2.07-7.36-6.32-4.45-16.39S65.23,268.25,68.87,274.54Z"/><path class="cls-3" d="M23.15,187.71H73.92v92.44H52.83V213c0-5.76-8.59-5.79-8.59,0v67.13H23.15Z"/><path class="cls-4" d="M35,126.35,22.69,165.23a9.48,9.48,0,0,1-11.87,6.14h0a9.47,9.47,0,0,1-6.14-11.86L17,120.63C20.62,109.34,38.44,115.64,35,126.35Z"/><path class="cls-4" d="M16.92,195h0a2.31,2.31,0,0,1,2,2.56l-.69,5.53a2.3,2.3,0,0,1-2.55,2h0a2.3,2.3,0,0,1-2-2.56l.68-5.53A2.3,2.3,0,0,1,16.92,195Z"/><path class="cls-4" d="M18.92,197.53l.33-3.07L.87,192.31l-.33,3.06C-.94,208.93,17.22,213.21,18.92,197.53Z"/><path class="cls-4" d="M19.25,194.46l3.56-29.3a9.43,9.43,0,0,0-8.38-10.41h0A9.46,9.46,0,0,0,4,163.13L.87,192.31Z"/><path class="cls-4" d="M62.24,126.35l12.35,38.88a9.46,9.46,0,0,0,11.86,6.14h0a9.48,9.48,0,0,0,6.15-11.86L80.25,120.63C76.66,109.34,58.84,115.64,62.24,126.35Z"/><path class="cls-4" d="M80.35,195h0a2.3,2.3,0,0,0-2,2.56l.68,5.53a2.31,2.31,0,0,0,2.56,2h0a2.32,2.32,0,0,0,2-2.56L82.91,197A2.29,2.29,0,0,0,80.35,195Z"/><path class="cls-4" d="M78.36,197.53,78,194.46l18.37-2.15.33,3.07C98.21,208.93,80.05,213.21,78.36,197.53Z"/><path class="cls-4" d="M78,194.46l-3.57-29.3a9.44,9.44,0,0,1,8.38-10.41h0a9.47,9.47,0,0,1,10.41,8.38l3.15,29.18Z"/><rect class="cls-5" x="23.15" y="114.61" width="50.77" height="80.04"/><path class="cls-4" d="M48.54,76.88h0A11.5,11.5,0,0,1,60,88.35v26.26a11.5,11.5,0,0,1-11.46,11.47h0a11.5,11.5,0,0,1-11.47-11.47V88.35A11.5,11.5,0,0,1,48.54,76.88Z"/><path class="cls-6" d="M60,106.06h0c0,9.85-22.93,9.85-22.93,0h0C37.07,96.22,60,96.22,60,106.06Z"/><path class="cls-4" d="M48.54,15.77c-64.6,0-49,93.76,0,93.76S113.13,15.77,48.54,15.77Z"/><path class="cls-4" d="M3.66,57.06c3.26-.84,7.22,3.65,8.85,10s.3,12.21-3,13S2.32,76.47.7,70.1.39,57.89,3.66,57.06Z"/><path class="cls-4" d="M93.45,57.06c-3.26-.84-7.23,3.65-8.85,10s-.3,12.21,3,13,7.23-3.65,8.85-10S96.71,57.89,93.45,57.06Z"/><path class="cls-7" d="M61.94,71.7c1.71,0,3.11-2.57,3.11-5.71s-1.4-5.7-3.11-5.7-3.11,2.56-3.11,5.7S60.22,71.7,61.94,71.7Z"/><path class="cls-7" d="M35.13,71.7c1.72,0,3.12-2.57,3.12-5.71s-1.4-5.7-3.12-5.7S32,62.85,32,66,33.42,71.7,35.13,71.7Z"/><path class="cls-6" d="M54.83,78.14c-2.42,6.16-10.17,6-12.59,0A9,9,0,0,0,54.83,78.14Z"/><path class="cls-8" d="M63.86,171a20.12,20.12,0,0,1-6.68,6.71,16.53,16.53,0,0,1-17.29,0A20.22,20.22,0,0,1,33.21,171l3.26-2a16.33,16.33,0,0,0,5.4,5.44,12.75,12.75,0,0,0,13.33,0A16.33,16.33,0,0,0,60.6,169l3.26,2ZM33.21,144.94a20.22,20.22,0,0,1,6.68-6.71,16.48,16.48,0,0,1,17.29,0,20.12,20.12,0,0,1,6.68,6.71l-3.26,2a16.33,16.33,0,0,0-5.4-5.44,12.7,12.7,0,0,0-13.33,0,16.33,16.33,0,0,0-5.4,5.44Z"/><rect class="cls-8" x="34.07" y="149.91" width="28.92" height="3.54"/><rect class="cls-8" x="34.07" y="155.24" width="28.92" height="5.5"/><rect class="cls-8" x="34.07" y="162.52" width="28.92" height="3.54"/><path class="cls-9" d="M67.15,85.41c-6.77,4.32-22.78,7-31.95,5.24A205,205,0,0,0,67.15,85.41Z"/><path class="cls-6" d="M57.78,90.75c-2.42,4.06-11.65,4.9-15,1.47A22,22,0,0,0,57.78,90.75Z"/><path class="cls-10" d="M12.84,69.31c.7,6.86-1,4.92-3.43-.46S5.15,58.1,5.59,52.79C9.74,1.5,86,.87,91.45,52.79c.56,5.3-1.36,10.68-3.82,16.06s-4.13,7.32-3.43.46C85.06,61,83.78,49,79.38,41.94c-7.8-12.48-18-5.23-31.77-5.23S27.36,31.08,18.35,42.6C12.89,49.58,11.92,60.42,12.84,69.31Z"/><path class="cls-10" d="M5.67,51.89C3.15,21.2,18.85,3.37,20.83,12.85s5.79,3.05,7.72-3.48S32.1.75,35.33,8.05s5.88,4.15,9-2.81,5.37-7,8.47,0,5.07,10.6,8.3,3.3,5.35-5.86,7.29.67S74,22.84,76,13.36,93.92,21.2,91.41,51.89C80.3,19.69,16.77,19.69,5.67,51.89Z"/><path class="cls-10" d="M56.5,56c2.23-2.91,7.44-3,10.67-1.06,1.62,1,.61,1.39-.44.88a8.06,8.06,0,0,0-9.17,1.52C56.28,58.53,55.27,57.64,56.5,56Z"/><path class="cls-10" d="M39.31,56c-2.23-2.91-7.44-3-10.66-1.06-1.62,1-.61,1.39.44.88a8.06,8.06,0,0,1,9.17,1.52C39.53,58.53,40.55,57.64,39.31,56Z"/><path class="cls-11" d="M16.45,288.42a9.49,9.49,0,0,0-.64,1.56c-2.44,7.85,6.08,7.85,11.16,6.62,5.33-1.28,7.59-4.83,10.52-5.67,3.85-1.11,5.68-2.85,6.11-5.77-4.08,3.17-10.26,5.77-16.81,7.93A14.49,14.49,0,0,0,16.45,288.42Z"/><path class="cls-12" d="M25.19,280a5.87,5.87,0,0,1,1,.41h.09a10.09,10.09,0,0,1,5.48.85A.61.61,0,0,1,32,282a.59.59,0,0,1-.81.23,7.6,7.6,0,0,0-3.45-.75A11.48,11.48,0,0,1,29.58,284a.6.6,0,0,1-.67,1,8.47,8.47,0,0,0-3.18-.91,12.71,12.71,0,0,1,1.76,2.48.6.6,0,0,1-1,.6,13.71,13.71,0,0,0-1.26-1.88v-2.45a12.5,12.5,0,0,1,2.46.39,7,7,0,0,0-1.12-1.2,4.51,4.51,0,0,0-.61-.44l-.73.09Zm-5.92,5.16a.6.6,0,0,1-.71-1,6.45,6.45,0,0,1,2.09-.88h0a.55.55,0,0,1-.45-.15A.8.8,0,0,1,20,283a.6.6,0,0,1,.13-.84,9.42,9.42,0,0,1,3-1.22l-.28,0a.6.6,0,0,1-.65-.55.59.59,0,0,1,.54-.64,6.34,6.34,0,0,1,2.48.22v1.73a16.75,16.75,0,0,0-2.45.56,5.36,5.36,0,0,1,1.41.58c.34,0,.7,0,1,0v2.45a6.05,6.05,0,0,0-.82-.86c-.18-.14-.36-.28-.55-.41A9.22,9.22,0,0,0,19.27,285.11Z"/><path class="cls-11" d="M80.27,288.42a9.49,9.49,0,0,1,.64,1.56c2.44,7.85-5.89,7.75-11,6.53-5.33-1.28-7.78-4.74-10.71-5.58-3.84-1.11-5.68-2.85-6.11-5.77,4.08,3.17,10.26,5.77,16.81,7.93A14.49,14.49,0,0,1,80.27,288.42Z"/><path class="cls-12" d="M77.45,285.11a.6.6,0,0,0,.71-1,6.45,6.45,0,0,0-2.09-.88h0a.55.55,0,0,0,.45-.15.61.61,0,0,0,.17-.15.6.6,0,0,0-.13-.84,9.42,9.42,0,0,0-3-1.22l.28,0a.6.6,0,0,0,.65-.55.59.59,0,0,0-.54-.64,6.34,6.34,0,0,0-2.48.22v1.73a16.75,16.75,0,0,1,2.45.56,5.36,5.36,0,0,0-1.41.58c-.34,0-.7,0-1,0v2.45a6.13,6.13,0,0,1,.83-.86c.17-.14.35-.28.54-.41A9.22,9.22,0,0,1,77.45,285.11ZM71.53,280a5.87,5.87,0,0,0-1,.41h-.09a10.09,10.09,0,0,0-5.48.85.61.61,0,0,0-.24.82.59.59,0,0,0,.81.23A7.6,7.6,0,0,1,69,281.5,11.48,11.48,0,0,0,67.14,284a.6.6,0,0,0,.67,1,8.47,8.47,0,0,1,3.18-.91,12.71,12.71,0,0,0-1.76,2.48.6.6,0,1,0,1,.6,13.71,13.71,0,0,1,1.26-1.88v-2.45a12.28,12.28,0,0,0-2.45.39,6.59,6.59,0,0,1,1.11-1.2,4.51,4.51,0,0,1,.61-.44l.73.09Z"/></g></g></svg>