<svg xmlns="http://www.w3.org/2000/svg" viewBox="0 0 102.31 290.62"><defs><style>.cls-1{fill:#6b503f;}.cls-1,.cls-10,.cls-2,.cls-3,.cls-4,.cls-6,.cls-7,.cls-8,.cls-9{fill-rule:evenodd;}.cls-2{fill:#425156;}.cls-3{fill:#fcdabe;}.cls-4{fill:#4e6078;}.cls-5,.cls-7{fill:#2c8245;}.cls-6{fill:#e0ba9b;}.cls-8{fill:#bf9470;}.cls-9{fill:#46ab63;}.cls-10,.cls-11{fill:#707c80;}</style></defs><title>person3</title><g id="Layer_2" data-name="Layer 2"><g id="Objects"><path class="cls-1" d="M48.54,6.74c-64.69,0-49.11,85.75,0,85.75S113.23,6.74,48.54,6.74Z"/><path class="cls-2" d="M19,268.24C14.5,275,8.49,278.83,7,283.68c-2.42,7.78,5.6,7.46,10.69,6.29,5.46-1.25,8-4.49,11-5.34,7.17-2.07,7.35-6.32,4.45-16.39S22.65,262,19,268.24Z"/><path class="cls-2" d="M64.84,268.24c4.52,6.72,10.53,10.59,12,15.44,2.5,8.05-6.29,7.49-11.36,6.12s-7.48-4.35-10.32-5.17c-7.17-2.07-7.35-6.32-4.45-16.39S61.21,262,64.84,268.24Z"/><path class="cls-3" d="M78.61,179.16h0a2.3,2.3,0,0,0-3.25,0l-3.94,3.94a2.3,2.3,0,0,0,0,3.25h0a2.31,2.31,0,0,0,3.25,0l3.94-3.94A2.29,2.29,0,0,0,78.61,179.16Z"/><path class="cls-4" d="M23.15,181.41H73.92l-4.18,92.45H48.65l4.18-67.14c.36-5.74-7.79-5.7-8.59,0l-9.37,67.14H13.79Z"/><rect class="cls-5" x="23.15" y="108.31" width="50.77" height="80.04"/><path class="cls-3" d="M48.54,70.58h0A11.5,11.5,0,0,1,60,82.05v26.26a11.5,11.5,0,0,1-11.46,11.47h0a11.5,11.5,0,0,1-11.47-11.47V82.05A11.5,11.5,0,0,1,48.54,70.58Z"/><path class="cls-6" d="M60,99.77h0c0,9.84-22.93,9.84-22.93,0h0C37.07,89.92,60,89.92,60,99.77Z"/><path class="cls-3" d="M48.54,9.47c-64.6,0-49,93.76,0,93.76S113.14,9.47,48.54,9.47Z"/><path class="cls-7" d="M64.52,122l20.14,35.47A9.46,9.46,0,0,0,97.53,161h0a9.47,9.47,0,0,0,3.56-12.87L81,112.69C75.11,102.39,59,112.24,64.52,122Z"/><path class="cls-3" d="M74.62,181.92l.89-3,17.77,5.13-.88,3C88.52,200.12,70.11,197,74.62,181.92Z"/><path class="cls-7" d="M75.51,179l8.06-28.39a9.43,9.43,0,0,1,11.75-6.36h0A9.48,9.48,0,0,1,101.67,156l-8.39,28.12Z"/><path class="cls-7" d="M33.32,120.33,19.71,158.79a9.48,9.48,0,0,1-12.06,5.75h0A9.49,9.49,0,0,1,1.9,152.48L15.51,114C19.47,102.86,37.07,109.74,33.32,120.33Z"/><path class="cls-3" d="M18.11,187.52h0a2.31,2.31,0,0,1,2.3,2.29v5.58a2.31,2.31,0,0,1-2.29,2.3h0a2.31,2.31,0,0,1-2.3-2.3v-5.57A2.31,2.31,0,0,1,18.11,187.52Z"/><path class="cls-3" d="M20.41,189.81l-.06-3.08-18.5.15L1.91,190C2.12,203.6,20.68,205.59,20.41,189.81Z"/><path class="cls-7" d="M20.35,186.73l-.11-29.52a9.43,9.43,0,0,0-9.61-9.29h0a9.48,9.48,0,0,0-9.28,9.61l.5,29.35Z"/><path class="cls-3" d="M3.66,50.76c3.26-.84,7.22,3.65,8.85,10s.3,12.21-3,13S2.32,70.17.69,63.8.39,51.59,3.66,50.76Z"/><path class="cls-3" d="M93.45,50.76c-3.26-.84-7.22,3.65-8.85,10s-.3,12.21,3,13,7.23-3.65,8.85-10S96.71,51.59,93.45,50.76Z"/><path class="cls-2" d="M61.94,65.4c1.71,0,3.11-2.57,3.11-5.7S63.65,54,61.94,54s-3.11,2.56-3.11,5.71S60.23,65.4,61.94,65.4Z"/><path class="cls-2" d="M35.14,65.4c1.71,0,3.11-2.57,3.11-5.7S36.85,54,35.14,54,32,56.55,32,59.7,33.42,65.4,35.14,65.4Z"/><path class="cls-1" d="M81.26,29.91c-9-9.86-39.19-1.27-57.33-5.95C9.54,20.26,8,9.9,14.13,0,23.87,14,79.52-6.12,81.26,29.91Z"/><path class="cls-8" d="M64.72,84C57.18,86.19,41,86.58,32.35,84Z"/><path class="cls-6" d="M54.83,71.84c-2.41,6.16-10.17,6-12.59,0A9,9,0,0,0,54.83,71.84Z"/><polygon class="cls-9" points="36.67 104.38 32.93 108.71 37.54 126.86 45.32 117.64 36.67 104.38"/><polygon class="cls-9" points="61.17 104.38 64.92 108.71 60.31 126.86 52.53 117.64 61.17 104.38"/><path class="cls-9" d="M53.41,118.68a8.92,8.92,0,0,1-4.87,1.1l4-2.14.88,1Zm-4.87,1.1-3.22-2.14-1.09,1.29A9.29,9.29,0,0,0,48.54,119.78Z"/><path class="cls-6" d="M56.06,87.33c-2.81,3.8-12.07,3.74-15,0A22,22,0,0,0,56.06,87.33Z"/><path class="cls-1" d="M12.93,63c.71,6.86-1,4.92-3.42-.46S5.25,51.8,5.68,46.49C9.84-4.8,86.1-5.43,91.55,46.49c.56,5.3-1.36,10.68-3.83,16.06s-4.13,7.32-3.42.46c.86-8.33-.42-20.31-4.83-27.37-7.79-12.48-18-5.23-31.76-5.23S27.45,24.78,18.45,36.3C13,43.28,12,54.12,12.93,63Z"/><path class="cls-1" d="M38,46.13c-1.49-2.64-5.75-3.3-8.62-2.1-1.43.6-.66,1.07.26.77a6.65,6.65,0,0,1,7.34,2.31C37.84,48.2,38.77,47.6,38,46.13Z"/><path class="cls-1" d="M58.25,51.75c1.49-2.64,5.75-3.3,8.61-2.1,1.44.6.66,1.07-.26.78a6.65,6.65,0,0,0-7.33,2.3C58.36,53.83,57.42,53.22,58.25,51.75Z"/><path class="cls-10" d="M7.63,282.12A9.49,9.49,0,0,0,7,283.68c-2.44,7.86,5.8,7.47,10.88,6.25,5.33-1.28,7.88-4.46,10.8-5.3,3.85-1.11,5.68-2.85,6.11-5.77C30.7,282,24.52,284.63,18,286.79A14.49,14.49,0,0,0,7.63,282.12Z"/><path class="cls-11" d="M16.38,273.66a5.39,5.39,0,0,1,1,.4h.09a10,10,0,0,1,5.48.86.59.59,0,0,1,.23.81.6.6,0,0,1-.81.24,7.44,7.44,0,0,0-3.45-.76,11.79,11.79,0,0,1,1.86,2.52.61.61,0,0,1,.14.75.62.62,0,0,1-.82.24,8.3,8.3,0,0,0-3.18-.92,12.88,12.88,0,0,1,1.76,2.48.6.6,0,1,1-1,.6A13.71,13.71,0,0,0,16.38,279v-2.45a12.52,12.52,0,0,1,2.45.39,7.39,7.39,0,0,0-1.11-1.2,4.61,4.61,0,0,0-.62-.44l-.72.09Zm-5.93,5.15a.6.6,0,0,1-.83-.13.6.6,0,0,1,.13-.84,6.38,6.38,0,0,1,2.08-.88h0a.58.58,0,0,1-.46-.15.8.8,0,0,1-.17-.15.61.61,0,0,1,.13-.84,9.49,9.49,0,0,1,3-1.22l-.29,0a.6.6,0,0,1-.65-.54.6.6,0,0,1,.54-.65,6.4,6.4,0,0,1,2.49.23v1.72a16.75,16.75,0,0,0-2.45.56,5.29,5.29,0,0,1,1.4.58c.35,0,.7,0,1,0V279a8.39,8.39,0,0,0-.83-.86c-.17-.14-.36-.28-.55-.41A9.25,9.25,0,0,0,10.45,278.81Z"/><path class="cls-10" d="M76.21,282.12a9.49,9.49,0,0,1,.64,1.56c2.44,7.86-5.79,7.47-10.88,6.25-5.33-1.28-7.87-4.46-10.8-5.3-3.84-1.11-5.68-2.85-6.11-5.77,4.09,3.17,10.26,5.77,16.81,7.93A14.51,14.51,0,0,1,76.21,282.12Z"/><path class="cls-11" d="M73.24,278.81a.61.61,0,0,0,.84-.13.6.6,0,0,0-.13-.84,6.48,6.48,0,0,0-2.08-.88h0a.81.81,0,0,0,.62-.3.59.59,0,0,0-.13-.84,9.42,9.42,0,0,0-3-1.22l.29,0a.6.6,0,1,0,.11-1.19,6.38,6.38,0,0,0-2.49.23v1.72a16.75,16.75,0,0,1,2.45.56,5.29,5.29,0,0,0-1.4.58c-.35,0-.7,0-1.05,0V279a7.45,7.45,0,0,1,.83-.86,6,6,0,0,1,.55-.41A9.17,9.17,0,0,1,73.24,278.81Zm-5.92-5.15a5.39,5.39,0,0,0-1,.4h-.09a10,10,0,0,0-5.48.86.6.6,0,0,0-.24.81.62.62,0,0,0,.82.24,7.43,7.43,0,0,1,3.44-.76,12.07,12.07,0,0,0-1.85,2.52.6.6,0,0,0-.14.75.6.6,0,0,0,.81.24,8.35,8.35,0,0,1,3.18-.92A13.82,13.82,0,0,0,65,280.27a.6.6,0,0,0,.22.82.59.59,0,0,0,.82-.22A13.71,13.71,0,0,1,67.32,279v-2.45a12.4,12.4,0,0,0-2.45.39,7.39,7.39,0,0,1,1.11-1.2,5.24,5.24,0,0,1,.61-.44l.73.09Z"/><polygon class="cls-9" points="1.85 186.88 1.79 182.87 20.34 182.7 20.35 186.73 1.85 186.88"/><polygon class="cls-9" points="75.5 178.96 76.58 175.09 94.41 180.23 93.28 184.09 75.5 178.96"/></g></g></svg>