<svg xmlns="http://www.w3.org/2000/svg" viewBox="0 0 103.71 287.79"><defs><style>.cls-1{fill:#dea97e;}.cls-1,.cls-10,.cls-11,.cls-2,.cls-3,.cls-5,.cls-6,.cls-8,.cls-9{fill-rule:evenodd;}.cls-2{fill:#869ab5;}.cls-3{fill:#e8972d;}.cls-4,.cls-8{fill:#425156;}.cls-5{fill:#ba885f;}.cls-10,.cls-6,.cls-7{fill:#6b503f;}.cls-9{fill:#a17049;}.cls-10{stroke:#6b503f;stroke-miterlimit:22.93;stroke-width:0.22px;}.cls-11,.cls-12{fill:#a6b8cf;}</style></defs><title>person7</title><g id="Layer_2" data-name="Layer 2"><g id="Objects"><path class="cls-1" d="M69.25,116.92,80.56,156.1a9.46,9.46,0,0,0,11.69,6.46h0a9.47,9.47,0,0,0,6.46-11.69L87.4,111.68C84.11,100.29,66.13,106.12,69.25,116.92Z"/><path class="cls-2" d="M83.36,265.41c4.51,6.72,10.52,10.59,12,15.44,2.41,7.78-5.6,7.46-10.69,6.3-5.46-1.25-8-4.49-11-5.35-7.17-2.07-7.35-6.31-4.45-16.39S79.72,259.12,83.36,265.41Z"/><path class="cls-2" d="M37.52,265.41C33,272.13,27,276,25.5,280.85c-2.5,8.06,6.29,7.5,11.36,6.13s7.48-4.36,10.32-5.18c7.17-2.07,7.35-6.31,4.45-16.39S41.16,259.12,37.52,265.41Z"/><path class="cls-1" d="M23.76,176.33h0a2.3,2.3,0,0,1,3.25,0L31,180.26a2.3,2.3,0,0,1,0,3.25h0a2.29,2.29,0,0,1-3.25,0l-3.95-3.93A2.31,2.31,0,0,1,23.76,176.33Z"/><path class="cls-3" d="M79.22,178.58H28.45L32.63,271H53.72L49.54,203.9c-.36-5.75,7.79-5.71,8.59,0L67.5,271H88.58Z"/><path class="cls-1" d="M37.85,119.19,17.71,154.66a9.48,9.48,0,0,1-12.88,3.56h0a9.49,9.49,0,0,1-3.55-12.88l20.13-35.48C27.26,99.56,43.39,109.42,37.85,119.19Z"/><path class="cls-2" d="M37.85,119.19,24.66,142.42,9.13,131.51l12.28-21.65C27.26,99.56,43.39,109.42,37.85,119.19Z"/><path class="cls-2" d="M69.25,116.92l6.87,23.83,18.24-4.95-7-24.12C84.11,100.29,66.13,106.12,69.25,116.92Z"/><rect class="cls-4" x="28.45" y="105.49" width="50.77" height="80.04"/><path class="cls-2" d="M39.72,105.49H67.94v1.77a14.15,14.15,0,0,1-14.11,14.11h0a14.15,14.15,0,0,1-14.11-14.11Z"/><path class="cls-1" d="M53.83,67.75h0A11.5,11.5,0,0,0,42.37,79.22v26.27A11.5,11.5,0,0,0,53.83,117h0A11.5,11.5,0,0,0,65.3,105.49V79.22A11.5,11.5,0,0,0,53.83,67.75Z"/><path class="cls-5" d="M42.37,96.94h0c0,9.85,22.93,9.85,22.93,0h0C65.3,87.09,42.37,87.09,42.37,96.94Z"/><path class="cls-6" d="M25.76,89.94A13.67,13.67,0,1,0,12.09,76.27,13.7,13.7,0,0,0,25.76,89.94Z"/><circle class="cls-7" cx="79.27" cy="76.72" r="13.67" transform="translate(2.26 155.72) rotate(-89.8)"/><path class="cls-6" d="M15.63,79.58A13.67,13.67,0,1,0,2,65.91,13.7,13.7,0,0,0,15.63,79.58Z"/><path class="cls-6" d="M88.06,78.62A13.67,13.67,0,1,0,74.39,65,13.7,13.7,0,0,0,88.06,78.62Z"/><path class="cls-6" d="M13.67,66.52A13.67,13.67,0,1,0,0,52.85,13.7,13.7,0,0,0,13.67,66.52Z"/><path class="cls-6" d="M90,64.4A13.67,13.67,0,1,0,76.37,50.73,13.7,13.7,0,0,0,90,64.4Z"/><path class="cls-1" d="M53.83,6.65c64.6,0,49,93.76,0,93.76S-10.77,6.65,53.83,6.65Z"/><path class="cls-1" d="M27.75,179.09l-.89-3-9.58.1-8.19,5,.88,3C13.85,197.3,32.26,194.21,27.75,179.09Z"/><path class="cls-1" d="M26.86,176.14l-8.06-28.4a9.42,9.42,0,0,0-11.75-6.35h0A9.46,9.46,0,0,0,.7,153.14l8.39,28.12Z"/><path class="cls-1" d="M83.66,185.17h0a2.3,2.3,0,0,0-2.24,2.34l.12,5.58a2.3,2.3,0,0,0,2.34,2.24h0A2.29,2.29,0,0,0,86.13,193L86,187.41A2.3,2.3,0,0,0,83.66,185.17Z"/><path class="cls-1" d="M81.42,187.51l0-3.08,8.36-3,10.13,2.68,0,3.09C100,200.87,81.52,203.29,81.42,187.51Z"/><path class="cls-1" d="M81.4,184.43l-.59-29.52a9.43,9.43,0,0,1,9.39-9.5h0a9.48,9.48,0,0,1,9.51,9.38l.18,29.35Z"/><path class="cls-1" d="M98.71,47.93c-3.26-.83-7.22,3.65-8.85,10s-.3,12.2,3,13,7.23-3.66,8.85-10S102,48.76,98.71,47.93Z"/><path class="cls-1" d="M8.92,47.93c3.26-.83,7.22,3.65,8.85,10s.3,12.2-3,13S7.58,67.34,6,61,5.66,48.76,8.92,47.93Z"/><path class="cls-8" d="M40.43,62.57c1.71,0,3.11-2.56,3.11-5.7s-1.4-5.7-3.11-5.7-3.11,2.56-3.11,5.7S38.72,62.57,40.43,62.57Z"/><path class="cls-8" d="M67.23,62.57c1.72,0,3.12-2.56,3.12-5.7s-1.4-5.7-3.12-5.7-3.11,2.56-3.11,5.7S65.52,62.57,67.23,62.57Z"/><path class="cls-9" d="M37.65,81.22c7.54,2.14,23.72,2.54,32.37,0Z"/><path class="cls-5" d="M47.54,69c2.41,6.16,10.17,6,12.59,0A9,9,0,0,1,47.54,69Z"/><path class="cls-5" d="M46.31,84.5c2.81,3.8,12.07,3.75,15,0A22,22,0,0,1,46.31,84.5Z"/><path class="cls-6" d="M64.17,43.49c2.43-1.81,6.59-.69,8.72,1.57,1.07,1.14.17,1.25-.55.6a6.66,6.66,0,0,0-7.64-.87C63.42,45.43,62.82,44.49,64.17,43.49Z"/><path class="cls-6" d="M44.12,43.49c-2.52-1.69-6.61-.36-8.63,2-1,1.19-.11,1.25.58.57a6.66,6.66,0,0,1,7.59-1.25C45,45.39,45.53,44.42,44.12,43.49Z"/><path class="cls-6" d="M26.05,35.47A13.67,13.67,0,1,0,12.37,21.8,13.7,13.7,0,0,0,26.05,35.47Z"/><path class="cls-6" d="M39.48,29.46A13.67,13.67,0,1,0,25.81,15.79,13.7,13.7,0,0,0,39.48,29.46Z"/><path class="cls-6" d="M60,27.34A13.67,13.67,0,1,0,46.32,13.67,13.7,13.7,0,0,0,60,27.34Z"/><path class="cls-6" d="M78.37,34.06A13.67,13.67,0,1,0,64.7,20.39,13.7,13.7,0,0,0,78.37,34.06Z"/><path class="cls-6" d="M89,49.26A13.67,13.67,0,1,0,75.31,35.59,13.7,13.7,0,0,0,89,49.26Z"/><path class="cls-6" d="M14.38,49.62A13.68,13.68,0,1,0,.71,36,13.7,13.7,0,0,0,14.38,49.62Z"/><circle class="cls-7" cx="56.1" cy="21.25" r="13.67" transform="translate(-0.08 0.21) rotate(-0.22)"/><path class="cls-6" d="M37.36,36.11A13.67,13.67,0,1,0,23.69,22.44,13.7,13.7,0,0,0,37.36,36.11Z"/><path class="cls-10" d="M75.35,37.26A13.67,13.67,0,1,0,61.68,23.59,13.7,13.7,0,0,0,75.35,37.26Z"/><path class="cls-6" d="M85.05,43A11.63,11.63,0,1,0,73.42,31.34,11.65,11.65,0,0,0,85.05,43Z"/><path class="cls-6" d="M22.84,41.51A13.67,13.67,0,1,0,9.16,27.84,13.7,13.7,0,0,0,22.84,41.51Z"/><path class="cls-6" d="M14.83,53.16a9.65,9.65,0,1,0-9.65-9.65A9.67,9.67,0,0,0,14.83,53.16Z"/><path class="cls-6" d="M90.53,53.11a9.34,9.34,0,1,0-9.34-9.34A9.36,9.36,0,0,0,90.53,53.11Z"/><path class="cls-6" d="M88.91,60.66a6,6,0,1,0-6-6A6,6,0,0,0,88.91,60.66Z"/><path class="cls-6" d="M13.83,59.94a6,6,0,1,0-6-6A6,6,0,0,0,13.83,59.94Z"/><path class="cls-6" d="M87.49,67.39a4.21,4.21,0,1,0-4.21-4.21A4.21,4.21,0,0,0,87.49,67.39Z"/><path class="cls-6" d="M14.54,65.85a4.21,4.21,0,1,0-4.21-4.21A4.21,4.21,0,0,0,14.54,65.85Z"/><path class="cls-11" d="M94.71,279.23a9.86,9.86,0,0,1,.64,1.56c2.44,7.86-5.79,7.48-10.88,6.25-5.33-1.28-7.87-4.45-10.8-5.3-3.85-1.11-5.68-2.84-6.11-5.77,4.08,3.18,10.26,5.78,16.81,7.93A14.53,14.53,0,0,1,94.71,279.23Z"/><path class="cls-12" d="M91.89,275.92a.58.58,0,0,0,.83-.13.59.59,0,0,0-.12-.83,6.24,6.24,0,0,0-2.09-.88h0a.66.66,0,0,0,.49-1.15,9.92,9.92,0,0,0-3-1.22l.28,0a.6.6,0,1,0,.11-1.19,6.52,6.52,0,0,0-2.48.23v1.73a16.8,16.8,0,0,1,2.45.55,6.14,6.14,0,0,0-1.41.58c-.35,0-.7,0-1,0v2.44a6.57,6.57,0,0,1,.82-.85c.18-.15.36-.29.55-.42A9.33,9.33,0,0,1,91.89,275.92ZM86,270.77a4.89,4.89,0,0,0-1,.41h-.09a10,10,0,0,0-5.48.85.6.6,0,0,0,.57,1.05,7.57,7.57,0,0,1,3.45-.75,11.35,11.35,0,0,0-1.85,2.51.6.6,0,0,0-.15.75.61.61,0,0,0,.82.24,8.67,8.67,0,0,1,3.18-.92,13.06,13.06,0,0,0-1.76,2.49.6.6,0,1,0,1,.6A13.31,13.31,0,0,1,86,276.1v-2.44a12.49,12.49,0,0,0-2.46.38,7,7,0,0,1,1.12-1.19,5.65,5.65,0,0,1,.61-.45l.73.1Z"/><path class="cls-11" d="M26.13,279.23a9.86,9.86,0,0,0-.64,1.56c-2.44,7.86,5.79,7.48,10.88,6.25,5.33-1.28,7.87-4.45,10.8-5.3,3.85-1.11,5.68-2.84,6.11-5.77-4.08,3.18-10.26,5.78-16.81,7.93A14.53,14.53,0,0,0,26.13,279.23Z"/><path class="cls-12" d="M35,270.77a5.42,5.42,0,0,1,1,.41h.09a10,10,0,0,1,5.48.85.6.6,0,0,1,.24.81.61.61,0,0,1-.82.24,7.52,7.52,0,0,0-3.44-.75,12,12,0,0,1,1.85,2.51.6.6,0,0,1-.67,1,8.73,8.73,0,0,0-3.18-.92,13.52,13.52,0,0,1,1.76,2.49.61.61,0,0,1-.22.82.61.61,0,0,1-.82-.22A13.19,13.19,0,0,0,35,276.1v-2.44a12.28,12.28,0,0,1,2.45.38,6.91,6.91,0,0,0-1.11-1.19,5.65,5.65,0,0,0-.61-.45l-.73.1Zm-5.92,5.15a.6.6,0,0,1-.84-.13.6.6,0,0,1,.13-.83,6.27,6.27,0,0,1,2.08-.88h0a.63.63,0,0,1-.46-.16.75.75,0,0,1-.16-.15.6.6,0,0,1,.13-.84,9.92,9.92,0,0,1,3-1.22l-.29,0a.6.6,0,0,1-.65-.54.6.6,0,0,1,.55-.65,6.52,6.52,0,0,1,2.48.23v1.73a16.8,16.8,0,0,0-2.45.55,6.32,6.32,0,0,1,1.41.58l1,0v2.44a6.65,6.65,0,0,0-.83-.85,4.69,4.69,0,0,0-.55-.42A9.32,9.32,0,0,0,29.1,275.92Z"/></g></g></svg>